<?xml version="1.0" encoding="UTF-8" standalone="no"?>
<!-- Created with Inkscape (http://www.inkscape.org/) -->

<svg
   xmlns:dc="http://purl.org/dc/elements/1.1/"
   xmlns:cc="http://creativecommons.org/ns#"
   xmlns:rdf="http://www.w3.org/1999/02/22-rdf-syntax-ns#"
   xmlns:svg="http://www.w3.org/2000/svg"
   xmlns="http://www.w3.org/2000/svg"
   xmlns:sodipodi="http://sodipodi.sourceforge.net/DTD/sodipodi-0.dtd"
   xmlns:inkscape="http://www.inkscape.org/namespaces/inkscape"
   width="2.95in"
   height="2.5in"
   viewBox="0 0 265.50001 225"
   id="svg2"
   version="1.1"
   inkscape:version="0.92.3 (2405546, 2018-03-11)"
   sodipodi:docname="gearImage.svg"
   inkscape:export-filename="/home/dominique/PhD/Thesis/defense/images/gearsMonolayer.png"
   inkscape:export-xdpi="600"
   inkscape:export-ydpi="600">
  <defs
     id="defs4" />
  <sodipodi:namedview
     id="base"
     pagecolor="#ffffff"
     bordercolor="#666666"
     borderopacity="1.0"
     inkscape:pageopacity="0.0"
     inkscape:pageshadow="2"
     inkscape:zoom="1.979899"
     inkscape:cx="109.91698"
     inkscape:cy="89.174254"
     inkscape:document-units="in"
     inkscape:current-layer="layer3"
     showgrid="false"
     units="in"
     inkscape:window-width="1920"
     inkscape:window-height="1043"
     inkscape:window-x="1920"
     inkscape:window-y="0"
     inkscape:window-maximized="1" />
  <metadata
     id="metadata7">
    <rdf:RDF>
      <cc:Work
         rdf:about="">
        <dc:format>image/svg+xml</dc:format>
        <dc:type
           rdf:resource="http://purl.org/dc/dcmitype/StillImage" />
        <dc:title></dc:title>
      </cc:Work>
    </rdf:RDF>
  </metadata>
  <g
     inkscape:groupmode="layer"
     id="layer2"
     inkscape:label="Surfactant"
     style="display:inline;opacity:0.5" />
  <g
     inkscape:groupmode="layer"
     id="layer3"
     inkscape:label="Nanoparticle"
     style="display:inline">
    <path
       style="opacity:1;fill:#7f0128;fill-opacity:1;fill-rule:nonzero;stroke:#00000f;stroke-width:1.41910064;stroke-linejoin:round;stroke-miterlimit:4;stroke-dasharray:none;stroke-dashoffset:0;stroke-opacity:0.94117647"
       d="m 237.25245,145.22912 -10.73806,10.09181 a 29.704803,29.704803 0 0 0 -6.06131,-0.0731 29.704803,29.704803 0 0 0 -7.6929,1.76512 l -12.87177,-7.19292 a 42.079524,42.079524 0 0 0 -3.97398,3.0119 l 3.37684,14.37061 a 29.704803,29.704803 0 0 0 -5.38643,12.7086 l -12.69409,7.56975 a 42.079524,42.079524 0 0 0 0.0483,1.1867 42.079524,42.079524 0 0 0 0.54943,3.75736 l 14.16245,4.26967 a 29.704803,29.704803 0 0 0 8.30163,11.03007 l 0.20796,14.75021 a 42.079524,42.079524 0 0 0 4.59082,1.95427 l 10.74046,-10.092 a 29.704803,29.704803 0 0 0 6.05892,0.0733 29.704803,29.704803 0 0 0 7.69529,-1.76534 l 12.8718,7.19281 a 42.079524,42.079524 0 0 0 3.97423,-3.00947 l -3.37707,-14.37303 a 29.704803,29.704803 0 0 0 5.38644,-12.70862 l 12.69429,-7.56735 a 42.079524,42.079524 0 0 0 -0.0483,-1.18669 42.079524,42.079524 0 0 0 -0.54945,-3.75738 l -14.16264,-4.27204 a 29.704803,29.704803 0 0 0 -8.30168,-11.03006 l -0.20794,-14.7502 a 42.079524,42.079524 0 0 0 -4.59315,-1.95416 z m -16.17672,16.81841 a 22.877366,22.877366 0 0 1 24.86943,20.69673 22.877366,22.877366 0 0 1 -20.69702,24.86702 22.877366,22.877366 0 0 1 -24.86676,-20.69461 22.877366,22.877366 0 0 1 20.69435,-24.86914 z"
       id="path2441"
       inkscape:connector-curvature="0"
       inkscape:transform-center-x="22.458058"
       inkscape:transform-center-y="-5.6222474" />
    <path
       inkscape:connector-curvature="0"
       id="path2460"
       d="m 234.96346,26.396827 a 41.288844,41.288844 0 0 0 -6.43077,-3.85403 l -9.56636,7.818901 a 30.524442,30.524442 0 0 0 -7.8733,-1.21645 l -6.7945,-10.297526 a 41.288844,41.288844 0 0 0 -7.28882,1.81628 l -1.232,12.274155 a 30.524442,30.524442 0 0 0 -6.43561,4.688794 30.524442,30.524442 0 0 0 -0.0168,0.01694 l -12.09026,-2.478868 a 41.288844,41.288844 0 0 0 -3.85228,6.43082 l 7.81806,9.56546 a 30.524442,30.524442 0 0 0 -1.21648,7.875037 l -10.29664,6.793635 a 41.288844,41.288844 0 0 0 1.81452,7.288812 l 12.27499,1.232888 a 30.524442,30.524442 0 0 0 4.68972,6.434749 30.524442,30.524442 0 0 0 0.016,0.0158 l -2.47976,12.091109 a 41.288844,41.288844 0 0 0 6.43167,3.853181 l 9.56635,-7.818913 a 30.524442,30.524442 0 0 0 7.87415,1.217338 l 6.79363,10.296631 a 41.288844,41.288844 0 0 0 7.28973,-1.815373 l 1.2328,-12.27492 a 30.524442,30.524442 0 0 0 6.43476,-4.689705 30.524442,30.524442 0 0 0 0.0153,-0.0162 l 12.09024,2.478846 a 41.288844,41.288844 0 0 0 3.85228,-6.430814 l -7.81803,-9.565486 a 30.524442,30.524442 0 0 0 1.21644,-7.873298 l 10.29753,-6.794495 a 41.288844,41.288844 0 0 0 -1.81538,-7.289702 l -12.27501,-1.232891 a 30.524442,30.524442 0 0 0 -4.68971,-6.434744 30.524442,30.524442 0 0 0 -0.0163,-0.01527 z m -8.12365,17.541768 a 22.675396,22.675396 0 0 1 -0.64875,32.061456 22.675396,22.675396 0 0 1 -32.06231,-0.649632 22.675396,22.675396 0 0 1 0.65048,-32.061433 22.675396,22.675396 0 0 1 32.06058,0.649609 z"
       style="opacity:1;fill:#ee292f;fill-opacity:1;fill-rule:nonzero;stroke:#00000f;stroke-width:0.73087049;stroke-linejoin:round;stroke-miterlimit:4;stroke-dasharray:none;stroke-dashoffset:0;stroke-opacity:0.94117647" />
    <path
       style="opacity:1;fill:#0ea8df;fill-opacity:1;fill-rule:nonzero;stroke:#00000f;stroke-width:0.91947472;stroke-linejoin:round;stroke-miterlimit:4;stroke-dasharray:none;stroke-dashoffset:0;stroke-opacity:0.94117647"
       d="m 49.297579,108.7764 a 57.195965,57.195965 0 0 0 -8.662918,2.56141 l 0.782216,10.05591 a 47.599026,47.599026 0 0 0 -5.778342,3.10043 l -7.863245,-6.26601 a 57.195965,57.195965 0 0 0 -6.960539,5.82309 l 4.813914,8.88633 a 47.599026,47.599026 0 0 0 -4.037654,5.11678 L 11.87201,135.5306 a 57.195965,57.195965 0 0 0 -4.0638379,8.11164 l 8.0224909,6.16808 a 47.599026,47.599026 0 0 0 -1.678502,6.35739 L 4.26428,157.8136 a 57.195965,57.195965 0 0 0 -0.4141618,9.02699 l 9.7773328,2.35803 a 47.599026,47.599026 0 0 0 0.09303,1.2921 47.599026,47.599026 0 0 0 1.010956,5.2948 l -8.4722786,5.5958 a 57.195965,57.195965 0 0 0 3.3243356,8.31243 l 9.831552,-1.81178 a 47.599026,47.599026 0 0 0 3.788919,5.73216 l -5.441256,8.52284 a 57.195965,57.195965 0 0 0 6.302192,6.2269 l 8.269875,-5.67165 a 47.599026,47.599026 0 0 0 5.949404,3.8467 l -1.49657,9.95193 a 57.195965,57.195965 0 0 0 8.168471,3.13822 l 5.272066,-8.5839 a 47.599026,47.599026 0 0 0 7.205007,1.14651 l 2.671188,9.66717 a 57.195965,57.195965 0 0 0 7.781454,-0.34776 57.195965,57.195965 0 0 0 0.867443,-0.13713 l 1.315292,-9.91884 a 47.599026,47.599026 0 0 0 7.170527,-2.0498 l 6.412924,7.79325 a 57.195965,57.195965 0 0 0 7.604199,-4.02013 l -2.836883,-9.6093 a 47.599026,47.599026 0 0 0 5.796672,-4.81913 l 8.963222,4.4799 a 57.195965,57.195965 0 0 0 5.32062,-6.72887 l -6.54497,-7.67821 a 47.599026,47.599026 0 0 0 3.33453,-6.7633 l 9.97454,0.44478 a 57.195965,57.195965 0 0 0 2.08652,-8.34503 l -9.1015,-4.35155 a 47.599026,47.599026 0 0 0 0.21178,-7.43976 l 9.3474,-3.67186 a 57.195965,57.195965 0 0 0 -0.063,-0.87805 57.195965,57.195965 0 0 0 -1.52879,-7.63759 l -10.06364,-0.27375 a 47.599026,47.599026 0 0 0 -2.79252,-6.7314 l 7.01681,-7.1271 a 57.195965,57.195965 0 0 0 -4.93567,-7.2304 l -9.361362,3.86671 a 47.599026,47.599026 0 0 0 -5.121999,-4.90576 l 3.496638,-9.32558 a 57.195965,57.195965 0 0 0 -7.528325,-4.66413 l -6.98386,7.34608 a 47.599026,47.599026 0 0 0 -6.478844,-2.30131 L 72.8631,108.85156 a 57.195965,57.195965 0 0 0 -8.884608,-1.17902 l -3.371098,9.49244 a 47.599026,47.599026 0 0 0 -5.394732,0.31953 47.599026,47.599026 0 0 0 -1.286477,0.20378 z m 7.348767,20.4766 A 35.743982,35.743982 0 0 1 96.450559,160.41202 35.743982,35.743982 0 0 1 65.291541,200.21623 35.743982,35.743982 0 0 1 25.487329,169.05721 35.743982,35.743982 0 0 1 56.646346,129.253 Z"
       id="path2462"
       inkscape:connector-curvature="0" />
    <path
       inkscape:connector-curvature="0"
       id="path2473"
       d="M 74.716901,2.4246168 A 57.195965,57.195965 0 0 0 65.888317,0.5107029 L 61.744823,9.706619 A 47.599026,47.599026 0 0 0 55.18748,9.650869 L 51.299873,0.3783368 a 57.195965,57.195965 0 0 0 -8.901891,1.764571 l -0.04549,10.1063672 a 47.599026,47.599026 0 0 0 -5.99896,2.548851 L 29.0409,7.916724 a 57.195965,57.195965 0 0 0 -7.460271,5.163113 l 4.074311,9.26313 a 47.599026,47.599026 0 0 0 -4.525538,4.770049 l -9.463325,-3.305244 a 57.195965,57.195965 0 0 0 -4.698692,7.718829 l 7.443387,6.764058 a 47.599026,47.599026 0 0 0 -0.538969,1.178017 47.599026,47.599026 0 0 0 -1.656224,5.129706 L 2.0968723,45.437544 A 57.195965,57.195965 0 0 0 1.0204708,54.32512 l 9.4935882,3.132689 a 47.599026,47.599026 0 0 0 0.57033,6.8475 l -8.8659252,4.862256 a 57.195965,57.195965 0 0 0 2.5371602,8.4885 l 9.977601,-1.0029 a 47.599026,47.599026 0 0 0 3.370867,6.231351 l -6.092321,8.010267 a 57.195965,57.195965 0 0 0 5.657516,6.675693 l 8.746848,-4.997068 a 47.599026,47.599026 0 0 0 5.769006,4.466009 l -2.299935,9.762153 a 57.195965,57.195965 0 0 0 6.992424,3.4319 57.195965,57.195965 0 0 0 0.826702,0.29635 l 5.917423,-8.0683 a 47.599026,47.599026 0 0 0 7.27387,1.6459 l 1.882004,9.91556 a 57.195965,57.195965 0 0 0 8.600548,0.12596 l 2.126806,-9.79097 a 47.599026,47.599026 0 0 0 7.398872,-1.44297 l 5.710238,8.23421 a 57.195965,57.195965 0 0 0 7.898506,-3.34666 l -2.053071,-9.878085 a 47.599026,47.599026 0 0 0 6.173017,-4.33074 l 8.535247,5.180638 a 57.195965,57.195965 0 0 0 5.838018,-6.31748 L 97.112652,84.268845 A 47.599026,47.599026 0 0 0 100.87152,77.845 l 9.96227,1.268649 a 57.195965,57.195965 0 0 0 0.36649,-0.800378 57.195965,57.195965 0 0 0 2.32721,-7.433315 l -8.69554,-5.073413 a 47.599026,47.599026 0 0 0 0.78355,-7.245405 l 9.57753,-2.881321 a 57.195965,57.195965 0 0 0 -0.85661,-8.712399 l -10.0681,-1.10445 a 47.599026,47.599026 0 0 0 -2.13662,-6.762624 l 7.54578,-6.500289 A 57.195965,57.195965 0 0 0 105.31431,24.8934 l -9.653798,3.089221 A 47.599026,47.599026 0 0 0 91.083051,22.852482 L 95.350562,13.80845 A 57.195965,57.195965 0 0 0 88.123959,8.507259 L 80.608137,15.21421 A 47.599026,47.599026 0 0 0 75.722832,12.903576 47.599026,47.599026 0 0 0 74.496571,12.464447 Z M 71.328273,23.914449 A 35.743982,35.743982 0 0 1 91.276443,70.361519 35.743982,35.743982 0 0 1 44.829373,90.30969 35.743982,35.743982 0 0 1 24.881205,43.862621 35.743982,35.743982 0 0 1 71.328273,23.914449 Z"
       style="opacity:1;fill:#faab2d;fill-opacity:1;fill-rule:nonzero;stroke:#00000f;stroke-width:0.91947472;stroke-linejoin:round;stroke-miterlimit:4;stroke-dasharray:none;stroke-dashoffset:0;stroke-opacity:0.94117647" />
    <path
       style="opacity:1;fill:#76c152;fill-opacity:1;fill-rule:nonzero;stroke:#00000f;stroke-width:0.83218157;stroke-linejoin:round;stroke-miterlimit:4;stroke-dasharray:none;stroke-dashoffset:0;stroke-opacity:0.94117647"
       d="m 170.97099,80.111203 a 51.76589,51.76589 0 0 0 -8.01976,-1.590825 l -3.60255,8.387803 a 43.080066,43.080066 0 0 0 -5.93477,0.05436 l -3.66619,-8.328767 a 51.76589,51.76589 0 0 0 -8.02729,1.739083 l 0.12035,9.146187 a 43.080066,43.080066 0 0 0 -5.38783,2.402392 l -6.72734,-6.110234 a 51.76589,51.76589 0 0 0 -6.66844,4.791447 l 3.83499,8.317264 a 43.080066,43.080066 0 0 0 -4.01901,4.388837 l -8.61638,-2.83972 a 51.76589,51.76589 0 0 0 -4.12858,7.06003 l 6.8438,6.00197 a 43.080066,43.080066 0 0 0 -0.4689,1.07463 43.080066,43.080066 0 0 0 -1.41676,4.66844 l -9.14321,0.92112 a 51.76589,51.76589 0 0 0 -0.832,8.05976 l 8.64102,2.68308 a 43.080066,43.080066 0 0 0 0.62552,6.18733 l -7.94524,4.54166 a 51.76589,51.76589 0 0 0 2.4316,7.64088 l 9.01293,-1.06703 a 43.080066,43.080066 0 0 0 3.14996,5.585 l -5.38504,7.34604 a 51.76589,51.76589 0 0 0 5.22631,5.95053 l 7.83533,-4.66175 a 43.080066,43.080066 0 0 0 5.29188,3.94918 l -1.92522,8.87074 a 51.76589,51.76589 0 0 0 6.38245,2.99383 51.76589,51.76589 0 0 0 0.75283,0.25496 l 5.22583,-7.39577 a 43.080066,43.080066 0 0 0 6.60859,1.37316 l 1.86155,8.94272 a 51.76589,51.76589 0 0 0 7.78483,-0.0235 l 1.7681,-8.89405 a 43.080066,43.080066 0 0 0 6.67233,-1.42403 l 5.29891,7.36003 a 51.76589,51.76589 0 0 0 7.09404,-3.15472 l -2.01575,-8.90606 a 43.080066,43.080066 0 0 0 5.51687,-4.01765 l 7.80652,4.55164 a 51.76589,51.76589 0 0 0 5.18196,-5.81013 l -5.46371,-7.31533 a 43.080066,43.080066 0 0 0 3.2988,-5.87315 l 9.03534,0.98878 a 51.76589,51.76589 0 0 0 0.31885,-0.73014 51.76589,51.76589 0 0 0 1.98714,-6.76375 l -7.94987,-4.45204 a 43.080066,43.080066 0 0 0 0.59324,-6.56906 l 8.62085,-2.76044 a 51.76589,51.76589 0 0 0 -0.91442,-7.87034 l -9.12849,-0.83852 a 43.080066,43.080066 0 0 0 -2.04156,-6.08548 l 6.72443,-6.00286 a 51.76589,51.76589 0 0 0 -4.07151,-6.904179 l -8.68655,2.949809 a 43.080066,43.080066 0 0 0 -4.22424,-4.569196 l 3.71721,-8.252331 A 51.76589,51.76589 0 0 0 183.2005,85.4012 l -6.69402,6.189378 a 43.080066,43.080066 0 0 0 -4.45774,-2.012851 43.080066,43.080066 0 0 0 -1.11669,-0.377778 z m -2.72295,19.500728 a 32.350517,32.350517 0 0 1 18.79391,41.712069 32.350517,32.350517 0 0 1 -41.71207,18.79392 32.350517,32.350517 0 0 1 -18.79392,-41.71207 32.350517,32.350517 0 0 1 41.71208,-18.793919 z"
       id="path2475"
       inkscape:connector-curvature="0" />
    <flowRoot
       xml:space="preserve"
       id="flowRoot2479"
       style="font-style:normal;font-weight:normal;font-size:25px;line-height:125%;font-family:sans-serif;letter-spacing:0px;word-spacing:0px;fill:#000000;fill-opacity:1;stroke:none;stroke-width:1px;stroke-linecap:butt;stroke-linejoin:miter;stroke-opacity:1"
       transform="scale(0.9375)"><flowRegion
         id="flowRegion2481"><rect
           id="rect2483"
           width="42.857143"
           height="28.571428"
           x="42.857143"
           y="163.21428" /></flowRegion><flowPara
         id="flowPara2485">Particle Concentrationas</flowPara><flowPara
         id="flowPara2487" /></flowRoot>    <text
       xml:space="preserve"
       style="font-style:normal;font-weight:normal;font-size:23.4375px;line-height:125%;font-family:sans-serif;letter-spacing:0px;word-spacing:0px;fill:#000000;fill-opacity:1;stroke:none;stroke-width:0.9375px;stroke-linecap:butt;stroke-linejoin:miter;stroke-opacity:1"
       x="59.826904"
       y="171.07811"
       id="text2491"><tspan
         sodipodi:role="line"
         x="59.826904"
         y="171.07811"
         style="font-size:15px;line-height:0px;text-align:center;text-anchor:middle;stroke-width:0.9375px"
         id="tspan2493">Solvent</tspan></text>
    <flowRoot
       xml:space="preserve"
       id="flowRoot2495"
       style="fill:black;stroke:none;stroke-opacity:1;stroke-width:1px;stroke-linejoin:miter;stroke-linecap:butt;fill-opacity:1;font-family:sans-serif;font-style:normal;font-weight:normal;font-size:25px;line-height:125%;letter-spacing:0px;word-spacing:0px"><flowRegion
         id="flowRegion2497"><rect
           id="rect2499"
           width="45"
           height="52.142857"
           x="-80.35714"
           y="98.214287" /></flowRegion><flowPara
         id="flowPara2501"></flowPara></flowRoot>    <text
       id="text2511"
       y="41.336636"
       x="57.932877"
       style="font-style:normal;font-weight:normal;font-size:23.4375px;line-height:125%;font-family:sans-serif;letter-spacing:0px;word-spacing:0px;fill:#000000;fill-opacity:1;stroke:none;stroke-width:0.9375px;stroke-linecap:butt;stroke-linejoin:miter;stroke-opacity:1"
       xml:space="preserve"><tspan
         dy="15"
         style="font-size:15px;line-height:0px;text-align:center;text-anchor:middle;stroke-width:0.9375px"
         y="41.336636"
         x="57.932877"
         id="tspan2507"
         sodipodi:role="line">Particle</tspan><tspan
         id="tspan2509"
         style="font-size:15px;line-height:0px;text-align:center;text-anchor:middle;stroke-width:0.9375px"
         y="70.633514"
         x="57.932877"
         sodipodi:role="line">Conc.</tspan></text>
    <text
       xml:space="preserve"
       style="font-style:normal;font-weight:normal;font-size:23.4375px;line-height:125%;font-family:sans-serif;letter-spacing:0px;word-spacing:0px;fill:#000000;fill-opacity:1;stroke:none;stroke-width:0.9375px;stroke-linecap:butt;stroke-linejoin:miter;stroke-opacity:1"
       x="156.42276"
       y="107.15439"
       id="text2517"><tspan
         sodipodi:role="line"
         x="156.42276"
         y="107.15439"
         style="font-size:15px;line-height:0px;text-align:center;text-anchor:middle;stroke-width:0.9375px"
         id="tspan2515"
         dy="15">Co-</tspan><tspan
         sodipodi:role="line"
         x="156.42276"
         y="136.45126"
         style="font-size:15px;line-height:0px;text-align:center;text-anchor:middle;stroke-width:0.9375px"
         id="tspan2535">Solvents</tspan></text>
    <text
       id="text2523"
       y="65.485603"
       x="210.42181"
       style="font-style:normal;font-weight:normal;font-size:23.4375px;line-height:125%;font-family:sans-serif;letter-spacing:0px;word-spacing:0px;fill:#000000;fill-opacity:1;stroke:none;stroke-width:0.9375px;stroke-linecap:butt;stroke-linejoin:miter;stroke-opacity:1"
       xml:space="preserve"><tspan
         id="tspan2521"
         style="font-size:15px;line-height:0px;text-align:center;text-anchor:middle;stroke-width:0.9375px"
         y="65.485603"
         x="210.42181"
         sodipodi:role="line">Fields</tspan></text>
    <text
       xml:space="preserve"
       style="font-style:normal;font-weight:normal;font-size:23.4375px;line-height:125%;font-family:sans-serif;letter-spacing:0px;word-spacing:0px;fill:#000000;fill-opacity:1;stroke:none;stroke-width:0.9375px;stroke-linecap:butt;stroke-linejoin:miter;stroke-opacity:1"
       x="224.21068"
       y="188.59793"
       id="text2529"><tspan
         sodipodi:role="line"
         x="224.21068"
         y="188.59793"
         style="font-size:15px;line-height:0px;text-align:center;text-anchor:middle;stroke-width:0.9375px"
         id="tspan2527">Temp.</tspan></text>
  </g>
  <g
     inkscape:label="Layer 1"
     inkscape:groupmode="layer"
     id="layer1"
     transform="translate(0,-827.36216)"
     style="display:inline" />
</svg>
