<?xml version="1.0" encoding="UTF-8" standalone="no"?>
<!-- Created with Inkscape (http://www.inkscape.org/) -->

<svg
   xmlns:dc="http://purl.org/dc/elements/1.1/"
   xmlns:cc="http://creativecommons.org/ns#"
   xmlns:rdf="http://www.w3.org/1999/02/22-rdf-syntax-ns#"
   xmlns:svg="http://www.w3.org/2000/svg"
   xmlns="http://www.w3.org/2000/svg"
   xmlns:sodipodi="http://sodipodi.sourceforge.net/DTD/sodipodi-0.dtd"
   xmlns:inkscape="http://www.inkscape.org/namespaces/inkscape"
   width="2.95in"
   height="2.5in"
   viewBox="0 0 265.50001 225"
   id="svg2"
   version="1.1"
   inkscape:version="0.92.3 (2405546, 2018-03-11)"
   sodipodi:docname="rebinning_OverlapAreas.svg"
   inkscape:export-filename="/home/dominique/PhD/Thesis/images/rebinning_OverlapAreas.png"
   inkscape:export-xdpi="600"
   inkscape:export-ydpi="600">
  <sodipodi:namedview
     id="base"
     pagecolor="#ffffff"
     bordercolor="#666666"
     borderopacity="1.0"
     inkscape:pageopacity="0.0"
     inkscape:pageshadow="2"
     inkscape:zoom="2.8"
     inkscape:cx="37.625237"
     inkscape:cy="106.93456"
     inkscape:document-units="in"
     inkscape:current-layer="layer1"
     showgrid="false"
     units="in"
     inkscape:window-width="1920"
     inkscape:window-height="1043"
     inkscape:window-x="1920"
     inkscape:window-y="0"
     inkscape:window-maximized="1" />
  <defs
     id="defs4" />
  <metadata
     id="metadata7">
    <rdf:RDF>
      <cc:Work
         rdf:about="">
        <dc:format>image/svg+xml</dc:format>
        <dc:type
           rdf:resource="http://purl.org/dc/dcmitype/StillImage" />
        <dc:title />
      </cc:Work>
    </rdf:RDF>
  </metadata>
  <g
     transform="translate(0,-827.36216)"
     id="layer1"
     inkscape:groupmode="layer"
     inkscape:label="Layer 1">
    <path
       sodipodi:nodetypes="ccccc"
       style="fill:#0ea8df;fill-opacity:1;fill-rule:evenodd;stroke:#000000;stroke-width:0.9;stroke-linecap:butt;stroke-linejoin:miter;stroke-opacity:1;stroke-miterlimit:4;stroke-dasharray:none"
       d="M 20.563485,1005.6636 167.74545,1032.4239 207.886,938.76269 7.1833044,885.24197 Z"
       id="path6657"
       inkscape:connector-curvature="0" />
    <path
       style="fill:#ee292f;fill-opacity:0.39037434;fill-rule:evenodd;stroke:#000000;stroke-width:0.9;stroke-linecap:butt;stroke-linejoin:miter;stroke-opacity:1;stroke-miterlimit:4;stroke-dasharray:none"
       d="m 128.47249,894.58755 h 108.98437 v 77.84598 H 128.47249 Z"
       id="path6680"
       inkscape:connector-curvature="0" />
    <polygon
       style="font-style:normal;font-variant:normal;font-weight:normal;font-stretch:normal;letter-spacing:normal;word-spacing:normal;text-anchor:start;fill:#000000;fill-opacity:1;fill-rule:evenodd;stroke:#000000;stroke-width:0;stroke-linecap:butt;stroke-linejoin:miter;stroke-miterlimit:10.43299961;stroke-dasharray:none;stroke-dashoffset:0;stroke-opacity:1"
       points="148.88,707.12 149.87,707.12 151.1,709.3 153.94,709.3 153.84,710.08 151.53,710.08 153.44,713.38 153.84,710.08 153.94,709.3 154.21,707.12 155.22,707.12 154.22,714.37 153.02,714.37 "
       id="polygon7498"
       transform="matrix(1.333333,0,0,-1.333333,-188.81313,1963.7817)" />
    <path
       style="font-style:normal;font-variant:normal;font-weight:normal;font-stretch:normal;letter-spacing:normal;word-spacing:normal;text-anchor:start;fill:#000000;fill-opacity:1;fill-rule:evenodd;stroke:#000000;stroke-width:0;stroke-linecap:butt;stroke-linejoin:miter;stroke-miterlimit:10.43299961;stroke-dasharray:none;stroke-dashoffset:0;stroke-opacity:1"
       inkscape:connector-curvature="0"
       d="m 170.29045,1044.7473 h 4.38666 l 0.0933,-1.0934 h -3.01333 l 0.72,-3.32 h 3 c 0.92,0 1.41333,0.4267 1.41333,1.2 0,0.5067 -0.16,0.9734 -0.45333,1.36 -0.41333,0.5334 -0.92,0.76 -1.66667,0.76 l -0.0933,1.0934 c 1.08,0 1.92,-0.3734 2.62667,-1.16 0.57333,-0.6267 0.86667,-1.4 0.86667,-2.2667 0,-0.8 -0.36,-1.2667 -1.29334,-1.6667 l 0.0267,-1.0266 c -0.4,0.4266 -0.93333,0.6133 -1.8,0.6133 h -2.4 l 0.66667,-3.0667 h 2.38667 c 1.13333,0 1.65333,0.36 1.65333,1.1334 0,0.4933 -0.18667,0.9866 -0.50667,1.32 l -0.0267,1.0266 c 1.16,-0.52 1.81334,-1.4666 1.81334,-2.6533 0,-0.4933 -0.14667,-0.88 -0.48,-1.24 -0.45334,-0.48 -1.01334,-0.68 -1.93334,-0.68 h -3.93333 z"
       id="path7500" />
    <path
       style="font-style:normal;font-variant:normal;font-weight:normal;font-stretch:normal;letter-spacing:normal;word-spacing:normal;text-anchor:start;fill:#000000;fill-opacity:1;fill-rule:evenodd;stroke:#000000;stroke-width:0;stroke-linecap:butt;stroke-linejoin:miter;stroke-miterlimit:10.43299961;stroke-dasharray:none;stroke-dashoffset:0;stroke-opacity:1"
       inkscape:connector-curvature="0"
       d="m 221.78135,932.82039 v -0.08 l -0.0133,-0.067 v -0.067 -0.067 l -0.0133,-0.067 v -0.067 l -0.0133,-0.067 v -0.053 l -0.0133,-0.067 -0.0133,-0.067 -0.0133,-0.053 v -0.053 l -0.0267,-0.12 -0.0267,-0.1067 -0.0267,-0.093 -0.0267,-0.1067 -0.04,-0.093 -0.0267,-0.093 -0.04,-0.093 -0.04,-0.08 -0.04,-0.093 -0.0533,-0.08 c -0.54666,-0.9334 -1.49333,-1.4267 -2.73333,-1.4267 -1.56,0 -2.85333,0.6267 -3.88,1.8667 -1.05333,1.2666 -1.70666,3.0933 -1.70666,4.7466 0,0.9334 0.26666,1.76 0.76,2.3867 0.61333,0.7733 1.44,1.12 2.62666,1.12 1.41334,0 2.64,-0.5067 3.50667,-1.4533 0.50666,-0.5734 0.93333,-1.2934 1.38666,-2.3734 h -1.30666 c -0.33334,0.76 -0.53334,1.16 -0.77334,1.48 -0.55999,0.7867 -1.57333,1.28 -2.62666,1.28 -1.38667,0 -2.29333,-1.08 -2.29333,-2.68 0,-1.2 0.4,-2.52 1.06666,-3.5333 0.81334,-1.1867 1.78667,-1.76 3.01334,-1.76 1.34666,0 1.99999,0.64 2.10666,2.08 z"
       id="path7502" />
    <path
       style="font-style:normal;font-variant:normal;font-weight:normal;font-stretch:normal;letter-spacing:normal;word-spacing:normal;text-anchor:start;fill:#000000;fill-opacity:1;fill-rule:evenodd;stroke:#000000;stroke-width:0;stroke-linecap:butt;stroke-linejoin:miter;stroke-miterlimit:10.43299961;stroke-dasharray:none;stroke-dashoffset:0;stroke-opacity:1"
       inkscape:connector-curvature="0"
       d="m 1.5483054,881.49197 h 3.759999 v -1.0934 h -2.28 l 1.613333,-7.48 h 2.266666 c 1.4266666,0 2.2799996,0.8267 2.2799996,2.2134 0,1.2133 -0.426667,2.8 -0.96,3.64 -0.6933326,1.0533 -1.7066656,1.6266 -2.9199986,1.6266 v 1.0934 c 1.426666,0 2.639999,-0.6 3.6133316,-1.7867 0.906667,-1.0933 1.533333,-3.0267 1.533333,-4.68 0,-0.9733 -0.4,-1.9467 -1.013333,-2.5067 -0.506667,-0.4533 -1.213333,-0.6933 -2.0799986,-0.6933 h -3.746666 z"
       id="path7504" />
    <g
       id="g7595"
       transform="translate(28.523878,-92.922575)">
      <polygon
         transform="matrix(1.333333,0,0,-1.333333,-152.44966,2021.5992)"
         id="polygon7506"
         points="180.73,707.12 181.96,709.3 184.8,709.3 184.7,710.08 182.4,710.08 184.3,713.38 184.7,710.08 184.8,709.3 185.07,707.12 186.09,707.12 185.08,714.37 183.88,714.37 179.75,707.12 "
         style="font-style:normal;font-variant:normal;font-weight:normal;font-stretch:normal;letter-spacing:normal;word-spacing:normal;text-anchor:start;fill:#000000;fill-opacity:1;fill-rule:evenodd;stroke:#000000;stroke-width:0;stroke-linecap:butt;stroke-linejoin:miter;stroke-miterlimit:10.43299961;stroke-dasharray:none;stroke-dashoffset:0;stroke-opacity:1" />
      <path
         id="path7508"
         d="m 98.656944,1068.9194 v -0.013 -0.013 h 0.01333 v -0.013 l 0.01333,-0.013 v -0.013 -0.013 -0.013 h 0.01333 v -0.013 l 0.01333,-0.027 v -0.013 l 0.01333,-0.027 v -0.013 l 0.01333,-0.013 v -0.027 -0.013 -0.013 l 0.01333,-0.027 v 0 -0.013 -0.013 0 c 0,-0.36 -0.32,-0.5867 -0.613333,-0.5867 -0.426667,0 -0.546667,0.3733 -0.586667,0.52 l -1.346666,4.56 c -0.04,0.1333 -0.04,0.16 -0.04,0.1733 0,0.093 0.06667,0.12 0.173333,0.1467 0.186667,0.08 0.213334,0.08 0.226667,0.08 0.04,0 0.09333,0 0.173333,-0.1733 z"
         inkscape:connector-curvature="0"
         style="font-style:normal;font-variant:normal;font-weight:normal;font-stretch:normal;letter-spacing:normal;word-spacing:normal;text-anchor:start;fill:#000000;fill-opacity:1;fill-rule:evenodd;stroke:#000000;stroke-width:0;stroke-linecap:butt;stroke-linejoin:miter;stroke-miterlimit:10.43299961;stroke-dasharray:none;stroke-dashoffset:0;stroke-opacity:1" />
    </g>
    <g
       id="g7599"
       transform="translate(136.64825,-92.92257)">
      <path
         id="path7510"
         d="m 100.61694,1078.7728 h 4.4 l 0.0933,-1.0934 h -3.01334 l 0.72,-3.32 h 3 c 0.92,0 1.41334,0.4267 1.41334,1.2 0,0.5067 -0.16,0.9734 -0.45334,1.36 -0.41333,0.5334 -0.92,0.76 -1.66666,0.76 l -0.0933,1.0934 c 1.08,0 1.92,-0.3734 2.62667,-1.16 0.57333,-0.6267 0.86666,-1.4 0.86666,-2.2667 0,-0.8 -0.36,-1.2667 -1.29333,-1.6667 l 0.0267,-1.0266 c -0.4,0.4266 -0.93333,0.6133 -1.81333,0.6133 h -2.38667 l 0.66667,-3.0667 h 2.38666 c 1.13334,0 1.65333,0.36 1.65333,1.1334 0,0.4933 -0.18666,0.9866 -0.50666,1.32 l -0.0267,1.0266 c 1.16,-0.52 1.81333,-1.4666 1.81333,-2.6533 0,-0.4933 -0.14666,-0.88 -0.48,-1.24 -0.45333,-0.48 -1.01333,-0.68 -1.93333,-0.68 h -3.93333 z"
         inkscape:connector-curvature="0"
         style="font-style:normal;font-variant:normal;font-weight:normal;font-stretch:normal;letter-spacing:normal;word-spacing:normal;text-anchor:start;fill:#000000;fill-opacity:1;fill-rule:evenodd;stroke:#000000;stroke-width:0;stroke-linecap:butt;stroke-linejoin:miter;stroke-miterlimit:10.43299961;stroke-dasharray:none;stroke-dashoffset:0;stroke-opacity:1" />
      <path
         id="path7512"
         d="m 111.83027,1068.9194 v -0.013 l 0.0133,-0.013 v 0 -0.013 l 0.0133,-0.013 v -0.013 -0.013 l 0.0133,-0.013 v 0 -0.013 l 0.0133,-0.027 0.0133,-0.013 v -0.027 l 0.0133,-0.013 v -0.013 -0.027 l 0.0133,-0.013 v -0.013 -0.027 0 -0.013 -0.013 0 c 0,-0.36 -0.32,-0.5867 -0.61334,-0.5867 -0.42666,0 -0.54666,0.3733 -0.58666,0.52 l -1.34667,4.56 c -0.04,0.1333 -0.04,0.16 -0.04,0.1733 0,0.093 0.0667,0.12 0.17333,0.1467 0.18667,0.08 0.21334,0.08 0.22667,0.08 0.04,0 0.10667,0 0.17333,-0.1733 z"
         inkscape:connector-curvature="0"
         style="font-style:normal;font-variant:normal;font-weight:normal;font-stretch:normal;letter-spacing:normal;word-spacing:normal;text-anchor:start;fill:#000000;fill-opacity:1;fill-rule:evenodd;stroke:#000000;stroke-width:0;stroke-linecap:butt;stroke-linejoin:miter;stroke-miterlimit:10.43299961;stroke-dasharray:none;stroke-dashoffset:0;stroke-opacity:1" />
    </g>
    <g
       id="g7603"
       transform="translate(125.89286,-186.22768)">
      <path
         id="path7514"
         d="m 122.99027,1072.1061 v -0.08 l -0.0133,-0.067 v -0.067 l -0.0133,-0.067 v -0.067 l -0.0133,-0.067 v -0.067 l -0.0133,-0.053 v -0.067 l -0.0133,-0.067 -0.0133,-0.053 -0.0133,-0.053 -0.0133,-0.12 -0.0267,-0.1067 -0.0267,-0.093 -0.0267,-0.1067 -0.04,-0.093 -0.04,-0.093 -0.0267,-0.093 -0.04,-0.08 -0.0533,-0.093 -0.04,-0.08 c -0.54666,-0.9334 -1.49333,-1.4267 -2.73333,-1.4267 -1.56,0 -2.85333,0.6267 -3.89333,1.8667 -1.04,1.2666 -1.69333,3.0933 -1.69333,4.7466 0,0.9334 0.26666,1.76 0.76,2.3867 0.6,0.7733 1.44,1.12 2.62666,1.12 1.41334,0 2.62667,-0.5067 3.49333,-1.4533 0.52,-0.5734 0.94667,-1.2934 1.4,-2.3734 h -1.30666 c -0.33333,0.76 -0.54667,1.16 -0.78667,1.48 -0.56,0.7867 -1.56,1.28 -2.61333,1.28 -1.38667,0 -2.30667,-1.08 -2.30667,-2.68 0,-1.2 0.4,-2.52 1.08,-3.5333 0.81334,-1.1867 1.78667,-1.76 3.01334,-1.76 1.33333,0 1.99999,0.64 2.10666,2.08 z"
         inkscape:connector-curvature="0"
         style="font-style:normal;font-variant:normal;font-weight:normal;font-stretch:normal;letter-spacing:normal;word-spacing:normal;text-anchor:start;fill:#000000;fill-opacity:1;fill-rule:evenodd;stroke:#000000;stroke-width:0;stroke-linecap:butt;stroke-linejoin:miter;stroke-miterlimit:10.43299961;stroke-dasharray:none;stroke-dashoffset:0;stroke-opacity:1" />
      <path
         id="path7516"
         d="m 125.95027,1068.9194 v -0.013 l 0.0133,-0.013 v 0 l 0.0133,-0.013 v -0.013 -0.013 l 0.0133,-0.013 v -0.013 0 l 0.0133,-0.013 v -0.027 l 0.0133,-0.013 v -0.027 l 0.0133,-0.013 v -0.013 -0.027 l 0.0133,-0.013 v -0.013 -0.027 0 -0.013 -0.013 0 c 0,-0.36 -0.32,-0.5867 -0.61333,-0.5867 -0.42667,0 -0.53333,0.3733 -0.58667,0.52 l -1.34666,4.56 c -0.04,0.1333 -0.04,0.16 -0.04,0.1733 0,0.093 0.0667,0.12 0.17333,0.1467 0.18667,0.08 0.21333,0.08 0.24,0.08 0.0267,0 0.0933,0 0.16,-0.1733 z"
         inkscape:connector-curvature="0"
         style="font-style:normal;font-variant:normal;font-weight:normal;font-stretch:normal;letter-spacing:normal;word-spacing:normal;text-anchor:start;fill:#000000;fill-opacity:1;fill-rule:evenodd;stroke:#000000;stroke-width:0;stroke-linecap:butt;stroke-linejoin:miter;stroke-miterlimit:10.43299961;stroke-dasharray:none;stroke-dashoffset:0;stroke-opacity:1" />
    </g>
    <g
       id="g7607"
       transform="translate(-10.580357,-185.82589)">
      <path
         id="path7518"
         d="m 128.05694,1078.7728 h 3.74666 l 0.0133,-1.0934 h -2.29334 l 1.61334,-7.48 h 2.28 c 1.41333,0 2.26666,0.8267 2.26666,2.2134 0,1.2133 -0.42667,2.8 -0.96,3.64 -0.68,1.0533 -1.69333,1.6266 -2.90666,1.6266 l -0.0133,1.0934 c 1.44,0 2.64,-0.6 3.61333,-1.7867 0.90667,-1.0933 1.54667,-3.0267 1.54667,-4.68 0,-0.9733 -0.4,-1.9467 -1.02667,-2.5067 -0.50666,-0.4533 -1.21333,-0.6933 -2.06666,-0.6933 h -3.76 z"
         inkscape:connector-curvature="0"
         style="font-style:normal;font-variant:normal;font-weight:normal;font-stretch:normal;letter-spacing:normal;word-spacing:normal;text-anchor:start;fill:#000000;fill-opacity:1;fill-rule:evenodd;stroke:#000000;stroke-width:0;stroke-linecap:butt;stroke-linejoin:miter;stroke-miterlimit:10.43299961;stroke-dasharray:none;stroke-dashoffset:0;stroke-opacity:1" />
      <path
         id="path7520"
         d="m 139.83027,1068.9194 v -0.013 l 0.0133,-0.013 v 0 -0.013 l 0.0133,-0.013 v -0.013 -0.013 l 0.0133,-0.013 v 0 -0.013 l 0.0133,-0.027 v -0.013 l 0.0133,-0.027 v -0.013 l 0.0133,-0.013 v -0.027 -0.013 l 0.0133,-0.013 v -0.027 0 -0.013 -0.013 0 c 0,-0.36 -0.32,-0.5867 -0.61333,-0.5867 -0.42667,0 -0.54667,0.3733 -0.58667,0.52 l -1.34667,4.56 c -0.04,0.1333 -0.04,0.16 -0.04,0.1733 0,0.093 0.0667,0.12 0.17334,0.1467 0.18666,0.08 0.21333,0.08 0.22666,0.08 0.04,0 0.0933,0 0.17334,-0.1733 z"
         inkscape:connector-curvature="0"
         style="font-style:normal;font-variant:normal;font-weight:normal;font-stretch:normal;letter-spacing:normal;word-spacing:normal;text-anchor:start;fill:#000000;fill-opacity:1;fill-rule:evenodd;stroke:#000000;stroke-width:0;stroke-linecap:butt;stroke-linejoin:miter;stroke-miterlimit:10.43299961;stroke-dasharray:none;stroke-dashoffset:0;stroke-opacity:1" />
    </g>
    <g
       id="g7615"
       transform="translate(46.808036,-92.410714)">
      <path
         id="path7522"
         d="m 147.77693,1074.6661 0.22667,-1.08 0.73333,-3.3867 h 2.57333 c 1.04,0 1.6,0.4534 1.6,1.28 0,0.4667 -0.16,0.9067 -0.46666,1.3067 -0.44,0.5467 -1.01334,0.8 -1.86667,0.8 h -2.57333 l -0.22667,1.08 h 3.02667 c 0.84,0 1.46666,-0.2 2.06666,-0.68 0.84,-0.6667 1.32,-1.6667 1.32,-2.7467 0,-1.4 -0.84,-2.1333 -2.46666,-2.1333 h -4.01334 l -2.06666,9.6667 h 1.25333 z"
         inkscape:connector-curvature="0"
         style="font-style:normal;font-variant:normal;font-weight:normal;font-stretch:normal;letter-spacing:normal;word-spacing:normal;text-anchor:start;fill:#000000;fill-opacity:1;fill-rule:evenodd;stroke:#000000;stroke-width:0;stroke-linecap:butt;stroke-linejoin:miter;stroke-miterlimit:10.43299961;stroke-dasharray:none;stroke-dashoffset:0;stroke-opacity:1" />
      <path
         id="path7524"
         d="m 156.0436,1076.3194 v 5.36 h 0.93333 v -7.52 h -0.61333 c -0.33334,1.16 -0.54667,1.32 -1.98667,1.4934 v 0.6666 z"
         inkscape:connector-curvature="0"
         style="font-style:normal;font-variant:normal;font-weight:normal;font-stretch:normal;letter-spacing:normal;word-spacing:normal;text-anchor:start;fill:#000000;fill-opacity:1;fill-rule:evenodd;stroke:#000000;stroke-width:0;stroke-linecap:butt;stroke-linejoin:miter;stroke-miterlimit:10.43299961;stroke-dasharray:none;stroke-dashoffset:0;stroke-opacity:1" />
    </g>
    <g
       id="g7611"
       transform="translate(-49.084821,-150.87054)">
      <path
         id="path7526"
         d="m 163.20359,1074.6661 0.22667,-1.08 0.73333,-3.3867 h 2.58667 c 1.02667,0 1.58667,0.4534 1.58667,1.28 0,0.4667 -0.16,0.9067 -0.46667,1.3067 -0.44,0.5467 -1,0.8 -1.85333,0.8 h -2.58667 l -0.22667,1.08 h 3.04 c 0.84,0 1.46667,-0.2 2.05334,-0.68 0.84,-0.6667 1.32,-1.6667 1.32,-2.7467 0,-1.4 -0.84,-2.1333 -2.45334,-2.1333 h -4.02666 l -2.05334,9.6667 h 1.25334 z"
         inkscape:connector-curvature="0"
         style="font-style:normal;font-variant:normal;font-weight:normal;font-stretch:normal;letter-spacing:normal;word-spacing:normal;text-anchor:start;fill:#000000;fill-opacity:1;fill-rule:evenodd;stroke:#000000;stroke-width:0;stroke-linecap:butt;stroke-linejoin:miter;stroke-miterlimit:10.43299961;stroke-dasharray:none;stroke-dashoffset:0;stroke-opacity:1" />
      <path
         id="path7528"
         d="m 174.09693,1080.7594 h -3.96 c 0.0933,-0.6133 0.44,-1.0133 1.36,-1.5466 l 1.06666,-0.5734 c 1.04,-0.5733 1.58667,-1.3466 1.58667,-2.2666 0,-0.6267 -0.25333,-1.2134 -0.70667,-1.6134 -0.44,-0.4 -0.98666,-0.6 -1.70666,-0.6 -0.94667,0 -1.65334,0.3467 -2.06667,0.9867 -0.26667,0.4 -0.38667,0.8667 -0.41333,1.6267 h 0.93333 c 0.04,-0.5067 0.0933,-0.8134 0.22667,-1.0667 0.24,-0.4533 0.73333,-0.7333 1.29333,-0.7333 0.85333,0 1.48,0.6133 1.48,1.4133 0,0.6 -0.34667,1.1067 -1.01333,1.4933 l -0.97334,0.5467 c -1.57333,0.8933 -2.02666,1.6 -2.10666,3.2533 h 5 z"
         inkscape:connector-curvature="0"
         style="font-style:normal;font-variant:normal;font-weight:normal;font-stretch:normal;letter-spacing:normal;word-spacing:normal;text-anchor:start;fill:#000000;fill-opacity:1;fill-rule:evenodd;stroke:#000000;stroke-width:0;stroke-linecap:butt;stroke-linejoin:miter;stroke-miterlimit:10.43299961;stroke-dasharray:none;stroke-dashoffset:0;stroke-opacity:1" />
    </g>
  </g>
</svg>
