<?xml version="1.0" encoding="UTF-8" standalone="no"?>
<!-- Created with Inkscape (http://www.inkscape.org/) -->

<svg
   xmlns:dc="http://purl.org/dc/elements/1.1/"
   xmlns:cc="http://creativecommons.org/ns#"
   xmlns:rdf="http://www.w3.org/1999/02/22-rdf-syntax-ns#"
   xmlns:svg="http://www.w3.org/2000/svg"
   xmlns="http://www.w3.org/2000/svg"
   xmlns:sodipodi="http://sodipodi.sourceforge.net/DTD/sodipodi-0.dtd"
   xmlns:inkscape="http://www.inkscape.org/namespaces/inkscape"
   width="5.9000001in"
   height="1.25in"
   viewBox="0 0 531.00002 112.5"
   id="svg2"
   version="1.1"
   inkscape:version="0.92.3 (2405546, 2018-03-11)"
   sodipodi:docname="sans_scattering_resolution.svg"
   inkscape:export-filename="/home/dominique/PhD/Thesis/images/appendix_methods_sans_resolution.png"
   inkscape:export-xdpi="600"
   inkscape:export-ydpi="600">
  <sodipodi:namedview
     id="base"
     pagecolor="#ffffff"
     bordercolor="#666666"
     borderopacity="1.0"
     inkscape:pageopacity="0.0"
     inkscape:pageshadow="2"
     inkscape:zoom="1.979899"
     inkscape:cx="321.25037"
     inkscape:cy="112.13443"
     inkscape:document-units="in"
     inkscape:current-layer="layer1"
     showgrid="true"
     units="in"
     inkscape:window-width="1920"
     inkscape:window-height="1043"
     inkscape:window-x="1920"
     inkscape:window-y="0"
     inkscape:window-maximized="1"
     inkscape:snap-global="false">
    <inkscape:grid
       id="grid3149"
       type="xygrid" />
  </sodipodi:namedview>
  <defs
     id="defs4">
    <marker
       inkscape:stockid="Arrow2Mend"
       orient="auto"
       refY="0.0"
       refX="0.0"
       id="marker18472"
       style="overflow:visible;"
       inkscape:isstock="true">
      <path
         id="path18224"
         style="fill-rule:evenodd;stroke-width:0.625;stroke-linejoin:round;stroke:#000000;stroke-opacity:1;fill:#000000;fill-opacity:1"
         d="M 8.7185878,4.0337352 L -2.2072895,0.016013256 L 8.7185884,-4.0017078 C 6.9730900,-1.6296469 6.9831476,1.6157441 8.7185878,4.0337352 z "
         transform="scale(0.6) rotate(180) translate(0,0)" />
    </marker>
    <marker
       inkscape:isstock="true"
       style="overflow:visible"
       id="marker18469"
       refX="0"
       refY="0"
       orient="auto"
       inkscape:stockid="Arrow2Mend">
      <path
         inkscape:connector-curvature="0"
         transform="scale(-0.6)"
         d="M 8.7185878,4.0337352 -2.2072895,0.01601326 8.7185884,-4.0017078 c -1.7454984,2.3720609 -1.7354408,5.6174519 -6e-7,8.035443 z"
         style="fill:#000000;fill-opacity:1;fill-rule:evenodd;stroke:#000000;stroke-width:0.625;stroke-linejoin:round;stroke-opacity:1"
         id="path18467" />
    </marker>
    <marker
       inkscape:stockid="Arrow1Mend"
       orient="auto"
       refY="0.0"
       refX="0.0"
       id="Arrow1Mend"
       style="overflow:visible;"
       inkscape:isstock="true">
      <path
         id="path18206"
         d="M 0.0,0.0 L 5.0,-5.0 L -12.5,0.0 L 5.0,5.0 L 0.0,0.0 z "
         style="fill-rule:evenodd;stroke:#000000;stroke-width:1pt;stroke-opacity:1;fill:#000000;fill-opacity:1"
         transform="scale(0.4) rotate(180) translate(10,0)" />
    </marker>
    <marker
       inkscape:stockid="Arrow2Mend"
       orient="auto"
       refY="0"
       refX="0"
       id="marker15485"
       style="overflow:visible"
       inkscape:isstock="true">
      <path
         id="path15483"
         style="fill:#000000;fill-opacity:1;fill-rule:evenodd;stroke:#000000;stroke-width:0.625;stroke-linejoin:round;stroke-opacity:1"
         d="M 8.7185878,4.0337352 -2.2072895,0.01601326 8.7185884,-4.0017078 c -1.7454984,2.3720609 -1.7354408,5.6174519 -6e-7,8.035443 z"
         transform="scale(-0.6)"
         inkscape:connector-curvature="0" />
    </marker>
    <marker
       inkscape:stockid="Arrow2Mstart"
       orient="auto"
       refY="0"
       refX="0"
       id="marker15409"
       style="overflow:visible"
       inkscape:isstock="true">
      <path
         id="path15407"
         style="fill:#000000;fill-opacity:1;fill-rule:evenodd;stroke:#000000;stroke-width:0.625;stroke-linejoin:round;stroke-opacity:1"
         d="M 8.7185878,4.0337352 -2.2072895,0.01601326 8.7185884,-4.0017078 c -1.7454984,2.3720609 -1.7354408,5.6174519 -6e-7,8.035443 z"
         transform="scale(0.6)"
         inkscape:connector-curvature="0" />
    </marker>
    <marker
       inkscape:collect="always"
       inkscape:isstock="true"
       style="overflow:visible"
       id="marker13813"
       refX="0"
       refY="0"
       orient="auto"
       inkscape:stockid="Arrow2Mend">
      <path
         inkscape:connector-curvature="0"
         transform="scale(-0.6)"
         d="M 8.7185878,4.0337352 -2.2072895,0.01601326 8.7185884,-4.0017078 c -1.7454984,2.3720609 -1.7354408,5.6174519 -6e-7,8.035443 z"
         style="fill:#000000;fill-opacity:1;fill-rule:evenodd;stroke:#000000;stroke-width:0.625;stroke-linejoin:round;stroke-opacity:1"
         id="path13811" />
    </marker>
    <marker
       inkscape:collect="always"
       inkscape:isstock="true"
       style="overflow:visible"
       id="marker13749"
       refX="0"
       refY="0"
       orient="auto"
       inkscape:stockid="Arrow2Mstart">
      <path
         inkscape:connector-curvature="0"
         transform="scale(0.6)"
         d="M 8.7185878,4.0337352 -2.2072895,0.01601326 8.7185884,-4.0017078 c -1.7454984,2.3720609 -1.7354408,5.6174519 -6e-7,8.035443 z"
         style="fill:#000000;fill-opacity:1;fill-rule:evenodd;stroke:#000000;stroke-width:0.625;stroke-linejoin:round;stroke-opacity:1"
         id="path13747" />
    </marker>
    <marker
       inkscape:stockid="SquareM"
       orient="auto"
       refY="0"
       refX="0"
       id="marker1240"
       style="overflow:visible"
       inkscape:isstock="true">
      <path
         id="path1238"
         d="M -5,-5 V 5 H 5 V -5 Z"
         style="fill:#000000;fill-opacity:1;fill-rule:evenodd;stroke:#000000;stroke-width:1.00000003pt;stroke-opacity:1"
         transform="scale(0.4)"
         inkscape:connector-curvature="0" />
    </marker>
    <marker
       inkscape:stockid="SquareM"
       orient="auto"
       refY="0"
       refX="0"
       id="marker1244"
       style="overflow:visible"
       inkscape:isstock="true">
      <path
         id="path1242"
         d="M -5,-5 V 5 H 5 V -5 Z"
         style="fill:#000000;fill-opacity:1;fill-rule:evenodd;stroke:#000000;stroke-width:1.00000003pt;stroke-opacity:1"
         transform="scale(0.4)"
         inkscape:connector-curvature="0" />
    </marker>
    <marker
       inkscape:stockid="SquareM"
       orient="auto"
       refY="0"
       refX="0"
       id="SquareM"
       style="overflow:visible"
       inkscape:isstock="true">
      <path
         id="path1043"
         d="M -5,-5 V 5 H 5 V -5 Z"
         style="fill:#000000;fill-opacity:1;fill-rule:evenodd;stroke:#000000;stroke-width:1.00000003pt;stroke-opacity:1"
         transform="scale(0.4)"
         inkscape:connector-curvature="0" />
    </marker>
    <marker
       inkscape:stockid="SquareM"
       orient="auto"
       refY="0"
       refX="0"
       id="marker1236"
       style="overflow:visible"
       inkscape:isstock="true">
      <path
         id="path1234"
         d="M -5,-5 V 5 H 5 V -5 Z"
         style="fill:#000000;fill-opacity:1;fill-rule:evenodd;stroke:#000000;stroke-width:1.00000003pt;stroke-opacity:1"
         transform="scale(0.4)"
         inkscape:connector-curvature="0" />
    </marker>
    <marker
       inkscape:isstock="true"
       style="overflow:visible"
       id="marker1144"
       refX="0"
       refY="0"
       orient="auto"
       inkscape:stockid="Arrow2Mstart">
      <path
         transform="scale(0.6)"
         d="M 8.7185878,4.0337352 -2.2072895,0.01601326 8.7185884,-4.0017078 c -1.7454984,2.3720609 -1.7354408,5.6174519 -6e-7,8.035443 z"
         style="fill:#000000;fill-opacity:1;fill-rule:evenodd;stroke:#000000;stroke-width:0.625;stroke-linejoin:round;stroke-opacity:1"
         id="path1142"
         inkscape:connector-curvature="0" />
    </marker>
    <marker
       inkscape:isstock="true"
       style="overflow:visible"
       id="marker1148"
       refX="0"
       refY="0"
       orient="auto"
       inkscape:stockid="Arrow2Mend">
      <path
         transform="scale(-0.6)"
         d="M 8.7185878,4.0337352 -2.2072895,0.01601326 8.7185884,-4.0017078 c -1.7454984,2.3720609 -1.7354408,5.6174519 -6e-7,8.035443 z"
         style="fill:#000000;fill-opacity:1;fill-rule:evenodd;stroke:#000000;stroke-width:0.625;stroke-linejoin:round;stroke-opacity:1"
         id="path1146"
         inkscape:connector-curvature="0" />
    </marker>
    <marker
       inkscape:collect="always"
       inkscape:stockid="Arrow2Mstart"
       orient="auto"
       refY="0"
       refX="0"
       id="Arrow2Mstart"
       style="overflow:visible"
       inkscape:isstock="true">
      <path
         id="path896"
         style="fill:#000000;fill-opacity:1;fill-rule:evenodd;stroke:#000000;stroke-width:0.625;stroke-linejoin:round;stroke-opacity:1"
         d="M 8.7185878,4.0337352 -2.2072895,0.01601326 8.7185884,-4.0017078 c -1.7454984,2.3720609 -1.7354408,5.6174519 -6e-7,8.035443 z"
         transform="scale(0.6)"
         inkscape:connector-curvature="0" />
    </marker>
    <marker
       inkscape:stockid="Arrow2Mend"
       orient="auto"
       refY="0"
       refX="0"
       id="Arrow2Mend"
       style="overflow:visible"
       inkscape:isstock="true"
       inkscape:collect="always">
      <path
         id="path899"
         style="fill:#000000;fill-opacity:1;fill-rule:evenodd;stroke:#000000;stroke-width:0.625;stroke-linejoin:round;stroke-opacity:1"
         d="M 8.7185878,4.0337352 -2.2072895,0.01601326 8.7185884,-4.0017078 c -1.7454984,2.3720609 -1.7354408,5.6174519 -6e-7,8.035443 z"
         transform="scale(-0.6)"
         inkscape:connector-curvature="0" />
    </marker>
  </defs>
  <metadata
     id="metadata7">
    <rdf:RDF>
      <cc:Work
         rdf:about="">
        <dc:format>image/svg+xml</dc:format>
        <dc:type
           rdf:resource="http://purl.org/dc/dcmitype/StillImage" />
        <dc:title />
      </cc:Work>
    </rdf:RDF>
  </metadata>
  <g
     style="display:inline"
     transform="translate(0,-939.86216)"
     id="layer1"
     inkscape:groupmode="layer"
     inkscape:label="BottomLayer">
    <path
       sodipodi:nodetypes="cccc"
       inkscape:connector-curvature="0"
       id="path13405"
       d="m -44.782125,-191.23252 c 0,20.13229 0.02896,41.23864 0.02896,63.53794 L -239.0625,-159.375 Z"
       style="opacity:0.5;fill:#ee292f;fill-opacity:1;stroke:none;stroke-width:0.89999998;stroke-linejoin:round;stroke-miterlimit:4;stroke-dasharray:none;stroke-dashoffset:0;stroke-opacity:1"
       transform="rotate(180,0,413.68107)" />
    <path
       sodipodi:nodetypes="cccc"
       inkscape:connector-curvature="0"
       id="path13407"
       d="m 496.623,-201.60755 c 0,28.97661 0.0382,55.26714 0.0382,84.23174 L 239.0625,-159.375 Z"
       style="opacity:0.5;fill:#ee292f;fill-opacity:1;stroke:none;stroke-width:0.89999998;stroke-linejoin:round;stroke-miterlimit:4;stroke-dasharray:none;stroke-dashoffset:0;stroke-opacity:1"
       transform="matrix(1,0,0,-1,0,827.36216)" />
    <path
       sodipodi:nodetypes="cccc"
       inkscape:connector-curvature="0"
       id="path881"
       d="m -190.71827,-496.6843 c 20.78183,0 40.3889,-0.14912 60.46763,-0.14912 L -159.375,-46.875 Z"
       style="opacity:0.5;fill:#0ea8df;fill-opacity:1;stroke:none;stroke-width:0.89999998;stroke-linejoin:round;stroke-miterlimit:4;stroke-dasharray:none;stroke-dashoffset:0;stroke-opacity:1"
       transform="matrix(0,-1,-1,0,0,827.36216)" />
    <polygon
       style="font-style:normal;font-variant:normal;font-weight:normal;font-stretch:normal;letter-spacing:normal;word-spacing:normal;text-anchor:start;fill:#000000;fill-opacity:1;fill-rule:evenodd;stroke:#000000;stroke-width:0;stroke-linecap:butt;stroke-linejoin:miter;stroke-miterlimit:10.43299961;stroke-dasharray:none;stroke-dashoffset:0;stroke-opacity:1"
       points="154.21,707.94 150.62,707.94 151.99,714.37 151.05,714.37 149.51,707.12 154.04,707.12 "
       id="polygon17975"
       transform="matrix(1.333333,0,0,-1.333333,-66.43428,1898.2907)" />
    <path
       style="font-style:normal;font-variant:normal;font-weight:normal;font-stretch:normal;letter-spacing:normal;word-spacing:normal;text-anchor:start;fill:#000000;fill-opacity:1;fill-rule:evenodd;stroke:#000000;stroke-width:0;stroke-linecap:butt;stroke-linejoin:miter;stroke-miterlimit:10.43299961;stroke-dasharray:none;stroke-dashoffset:0;stroke-opacity:1"
       inkscape:connector-curvature="0"
       d="m 146.24567,953.38427 -0.0267,-0.16 -0.04,-0.14667 -0.04,-0.14666 -0.04,-0.14667 -0.04,-0.13333 -0.0533,-0.13334 -0.0533,-0.12 -0.0667,-0.12 -0.0533,-0.12 -0.0667,-0.10666 -0.0667,-0.10667 -0.08,-0.10667 -0.08,-0.0933 -0.08,-0.0933 -0.0933,-0.08 -0.08,-0.08 -0.10667,-0.08 -0.0933,-0.0667 -0.10667,-0.0667 -0.10667,-0.0667 -0.10666,-0.0533 -0.12,-0.0533 -0.12,-0.04 -0.12,-0.0533 -0.12,-0.0267 -0.13334,-0.04 -0.13333,-0.0267 -0.14667,-0.0133 -0.14666,-0.0267 h -0.1467 l -0.14667,-0.0133 h -0.16 c -1.04,0 -1.88,0.32 -2.45333,0.96 -0.69333,0.76 -1.08,1.86667 -1.08,3.12 0,1.26667 0.4,2.36 1.13333,3.10667 0.58667,0.61333 1.34667,0.90666 2.36,0.90666 1.88,0 2.94667,-1.01333 3.17334,-3.06666 h -1.01334 c -0.0933,0.53333 -0.18666,0.89333 -0.34666,1.2 -0.32,0.64 -0.97334,1 -1.8,1 -1.54667,0 -2.52,-1.22667 -2.52,-3.16 0,-1.98667 0.93333,-3.2 2.42666,-3.2 0.62667,0 1.21334,0.18666 1.53334,0.49333 0.28,0.25333 0.44,0.58667 0.56,1.16 z"
       id="path17977" />
    <path
       style="font-style:normal;font-variant:normal;font-weight:normal;font-stretch:normal;letter-spacing:normal;word-spacing:normal;text-anchor:start;fill:#000000;fill-opacity:1;fill-rule:evenodd;stroke:#000000;stroke-width:0;stroke-linecap:butt;stroke-linejoin:miter;stroke-miterlimit:10.43299961;stroke-dasharray:none;stroke-dashoffset:0;stroke-opacity:1"
       inkscape:connector-curvature="0"
       d="m 153.219,953.25094 v -0.13334 l -0.0133,-0.13333 -0.0133,-0.13333 -0.0267,-0.13334 -0.0267,-0.12 -0.0267,-0.12 -0.04,-0.12 -0.0533,-0.12 -0.04,-0.10666 -0.0533,-0.10667 -0.0667,-0.0933 -0.0667,-0.0933 -0.08,-0.0933 -0.0667,-0.0933 -0.0933,-0.08 -0.08,-0.08 -0.0933,-0.08 -0.10667,-0.0667 -0.0933,-0.0667 -0.10667,-0.0533 -0.12,-0.0667 -0.12,-0.04 -0.12,-0.0533 -0.13333,-0.04 -0.13333,-0.04 -0.13334,-0.0267 -0.14666,-0.0267 -0.14667,-0.0267 -0.14667,-0.0133 -0.16,-0.0133 -0.16,-0.0133 h -0.16 c -1.69333,0 -2.74666,0.86667 -2.74666,2.26667 0,0.94666 0.49333,1.53333 1.52,1.8 l 1.92,0.50666 c 0.97333,0.25334 1.41333,0.65334 1.41333,1.25334 0,0.41333 -0.21333,0.84 -0.54667,1.06666 -0.30666,0.21334 -0.8,0.33334 -1.42666,0.33334 -0.82667,0 -1.4,-0.2 -1.77334,-0.65334 -0.29333,-0.33333 -0.41333,-0.70666 -0.4,-1.18666 H 147.419 c 0.0133,0.72 0.14667,1.17333 0.45333,1.6 0.53334,0.71999 1.41334,1.10666 2.6,1.10666 0.92,0 1.66667,-0.21333 2.16,-0.6 0.52,-0.41333 0.85334,-1.09333 0.85334,-1.76 0,-0.96 -0.58667,-1.65333 -1.64,-1.94666 l -1.94667,-0.52 c -0.93333,-0.25334 -1.26667,-0.54667 -1.26667,-1.13334 0,-0.78666 0.69334,-1.30666 1.73334,-1.30666 1.22666,0 1.92,0.56 1.92,1.56 z"
       id="path17979" />
    <path
       style="font-style:normal;font-variant:normal;font-weight:normal;font-stretch:normal;letter-spacing:normal;word-spacing:normal;text-anchor:start;fill:#000000;fill-opacity:1;fill-rule:evenodd;stroke:#000000;stroke-width:0;stroke-linecap:butt;stroke-linejoin:miter;stroke-miterlimit:10.43299961;stroke-dasharray:none;stroke-dashoffset:0;stroke-opacity:1"
       inkscape:connector-curvature="0"
       d="m 154.939,958.7176 h 2.97333 c 1.94667,0 3.14667,-1.46666 3.14667,-3.86666 0,-2.4 -1.18667,-3.86667 -3.14667,-3.86667 l -0.17333,0.86667 c 1.53333,0 2.33333,1.04 2.33333,3 0,1.96 -0.8,2.98666 -2.33333,2.98666 h -1.81334 v -5.98666 h 1.81334 l 0.17333,-0.86667 H 154.939 Z"
       id="path17981" />
    <g
       id="g18108"
       transform="translate(186.09375)">
      <polygon
         transform="matrix(1.333333,0,0,-1.333333,-66.43428,1898.2907)"
         id="polygon17983"
         points="179.84,707.94 176.25,707.94 177.62,714.37 176.69,714.37 175.14,707.12 179.67,707.12 "
         style="font-style:normal;font-variant:normal;font-weight:normal;font-stretch:normal;letter-spacing:normal;word-spacing:normal;text-anchor:start;fill:#000000;fill-opacity:1;fill-rule:evenodd;stroke:#000000;stroke-width:0;stroke-linecap:butt;stroke-linejoin:miter;stroke-miterlimit:10.43299961;stroke-dasharray:none;stroke-dashoffset:0;stroke-opacity:1" />
      <path
         id="path17985"
         d="m 179.72566,953.25094 v -0.13334 l -0.0133,-0.13333 -0.0133,-0.13333 -0.0267,-0.13334 -0.0267,-0.12 -0.0267,-0.12 -0.04,-0.12 -0.0533,-0.12 -0.04,-0.10666 -0.0667,-0.10667 -0.0533,-0.0933 -0.0667,-0.0933 -0.08,-0.0933 -0.08,-0.0933 -0.08,-0.08 -0.08,-0.08 -0.0933,-0.08 -0.10667,-0.0667 -0.0933,-0.0667 -0.12,-0.0533 -0.10667,-0.0667 -0.12,-0.04 -0.12,-0.0533 -0.13333,-0.04 -0.13333,-0.04 -0.13334,-0.0267 -0.14666,-0.0267 -0.14667,-0.0267 -0.14667,-0.0133 -0.16,-0.0133 -0.16,-0.0133 h -0.16 c -1.69333,0 -2.74666,0.86667 -2.74666,2.26667 0,0.94666 0.49333,1.53333 1.52,1.8 l 1.90666,0.50666 c 0.97334,0.25334 1.42667,0.65334 1.42667,1.25334 0,0.41333 -0.22667,0.84 -0.54667,1.06666 -0.32,0.21334 -0.8,0.33334 -1.42666,0.33334 -0.84,0 -1.41334,-0.2 -1.77334,-0.65334 -0.29333,-0.33333 -0.41333,-0.70666 -0.41333,-1.18666 h -0.93333 c 0.0133,0.72 0.16,1.17333 0.46666,1.6 0.52,0.71999 1.41334,1.10666 2.58667,1.10666 0.92,0 1.68,-0.21333 2.17333,-0.6 0.52,-0.41333 0.85334,-1.09333 0.85334,-1.76 0,-0.96 -0.6,-1.65333 -1.64,-1.94666 l -1.94667,-0.52 c -0.93333,-0.25334 -1.26667,-0.54667 -1.26667,-1.13334 0,-0.78666 0.69334,-1.30666 1.72,-1.30666 1.24,0 1.92,0.56 1.93334,1.56 z"
         inkscape:connector-curvature="0"
         style="font-style:normal;font-variant:normal;font-weight:normal;font-stretch:normal;letter-spacing:normal;word-spacing:normal;text-anchor:start;fill:#000000;fill-opacity:1;fill-rule:evenodd;stroke:#000000;stroke-width:0;stroke-linecap:butt;stroke-linejoin:miter;stroke-miterlimit:10.43299961;stroke-dasharray:none;stroke-dashoffset:0;stroke-opacity:1" />
      <path
         id="path17987"
         d="m 181.44566,958.7176 h 2.97333 c 1.94667,0 3.14667,-1.46666 3.14667,-3.86666 0,-2.4 -1.18667,-3.86667 -3.14667,-3.86667 l -0.17333,0.86667 c 1.53333,0 2.33333,1.04 2.33333,3 0,1.96 -0.8,2.98666 -2.33333,2.98666 h -1.81334 v -5.98666 h 1.81334 l 0.17333,-0.86667 h -2.97333 z"
         inkscape:connector-curvature="0"
         style="font-style:normal;font-variant:normal;font-weight:normal;font-stretch:normal;letter-spacing:normal;word-spacing:normal;text-anchor:start;fill:#000000;fill-opacity:1;fill-rule:evenodd;stroke:#000000;stroke-width:0;stroke-linecap:butt;stroke-linejoin:miter;stroke-miterlimit:10.43299961;stroke-dasharray:none;stroke-dashoffset:0;stroke-opacity:1" />
      <path
         id="path17989"
         d="m 189.11232,958.7176 h 2.97334 c 1.95999,0 3.14666,-1.46666 3.14666,-3.86666 0,-2.4 -1.18667,-3.86667 -3.14666,-3.86667 l -0.16,0.86667 c 1.52,0 2.31999,1.04 2.31999,3 0,1.96 -0.79999,2.98666 -2.31999,2.98666 h -1.82667 v -5.98666 h 1.82667 l 0.16,-0.86667 h -2.97334 z"
         inkscape:connector-curvature="0"
         style="font-style:normal;font-variant:normal;font-weight:normal;font-stretch:normal;letter-spacing:normal;word-spacing:normal;text-anchor:start;fill:#000000;fill-opacity:1;fill-rule:evenodd;stroke:#000000;stroke-width:0;stroke-linecap:butt;stroke-linejoin:miter;stroke-miterlimit:10.43299961;stroke-dasharray:none;stroke-dashoffset:0;stroke-opacity:1" />
    </g>
    <path
       style="fill:none;fill-rule:evenodd;stroke:#000000;stroke-width:0.89999998;stroke-linecap:butt;stroke-linejoin:miter;stroke-miterlimit:4;stroke-dasharray:none;stroke-opacity:1;marker-end:url(#marker18472)"
       d="M 506.11608,986.56975 V 949.40457"
       id="path18195"
       inkscape:connector-curvature="0" />
    <text
       xml:space="preserve"
       style="font-style:normal;font-weight:normal;font-size:23.4375px;line-height:125%;font-family:sans-serif;letter-spacing:0px;word-spacing:0px;fill:#000000;fill-opacity:1;stroke:none;stroke-width:0.9375px;stroke-linecap:butt;stroke-linejoin:miter;stroke-opacity:1"
       x="513.28375"
       y="951.03125"
       id="text18463"><tspan
         sodipodi:role="line"
         id="tspan18461"
         x="513.28375"
         y="951.03125"
         style="font-style:italic;font-variant:normal;font-weight:normal;font-stretch:normal;font-size:15px;font-family:sans-serif;-inkscape-font-specification:'sans-serif, Italic';font-variant-ligatures:normal;font-variant-caps:normal;font-variant-numeric:normal;font-feature-settings:normal;text-align:start;writing-mode:lr-tb;text-anchor:start;stroke-width:0.9375px">y</tspan></text>
  </g>
  <g
     transform="translate(0,-112.5)"
     inkscape:label="LiquidTopLayer"
     id="layer2"
     inkscape:groupmode="layer" />
  <g
     transform="translate(0,-112.5)"
     inkscape:label="Nanoparticles"
     id="layer3"
     inkscape:groupmode="layer">
    <path
       inkscape:connector-curvature="0"
       id="path851"
       d="M 496.875,206.25 V 112.5"
       style="fill:none;fill-rule:evenodd;stroke:#000000;stroke-width:0.9;stroke-linecap:butt;stroke-linejoin:miter;stroke-miterlimit:4;stroke-dasharray:none;stroke-opacity:1" />
    <text
       id="text855"
       y="219.39641"
       x="459.44229"
       style="font-style:normal;font-weight:normal;font-size:23.4375px;line-height:125%;font-family:sans-serif;letter-spacing:0px;word-spacing:0px;fill:#000000;fill-opacity:1;stroke:none;stroke-width:0.9375px;stroke-linecap:butt;stroke-linejoin:miter;stroke-opacity:1"
       xml:space="preserve"><tspan
         style="font-size:15px;stroke-width:0.9375px"
         y="219.39641"
         x="459.44229"
         id="tspan853"
         sodipodi:role="line">Detector</tspan></text>
    <text
       id="text855-6"
       y="221.21286"
       x="212.29227"
       style="font-style:normal;font-weight:normal;font-size:23.4375px;line-height:125%;font-family:sans-serif;letter-spacing:0px;word-spacing:0px;fill:#000000;fill-opacity:1;stroke:none;stroke-width:0.9375px;stroke-linecap:butt;stroke-linejoin:miter;stroke-opacity:1"
       xml:space="preserve"><tspan
         style="font-size:15px;stroke-width:0.9375px"
         y="221.21286"
         x="212.29227"
         id="tspan853-7"
         sodipodi:role="line">Sample</tspan></text>
    <text
       id="text877"
       y="221.53148"
       x="12.034322"
       style="font-style:normal;font-weight:normal;font-size:23.4375px;line-height:125%;font-family:sans-serif;letter-spacing:0px;word-spacing:0px;fill:#000000;fill-opacity:1;stroke:none;stroke-width:0.9375px;stroke-linecap:butt;stroke-linejoin:miter;stroke-opacity:1"
       xml:space="preserve"><tspan
         style="font-size:15px;stroke-width:0.9375px"
         y="221.53148"
         x="12.034322"
         id="tspan875"
         sodipodi:role="line">Collimation</tspan></text>
    <path
       style="fill:none;fill-rule:evenodd;stroke:#000000;stroke-width:0.9;stroke-linecap:butt;stroke-linejoin:miter;stroke-miterlimit:4;stroke-dasharray:none;stroke-opacity:1;marker-start:url(#Arrow2Mstart);marker-end:url(#Arrow2Mend)"
       d="M 51.5625,131.25 V 187.5"
       id="path870"
       inkscape:connector-curvature="0" />
    <path
       inkscape:connector-curvature="0"
       id="path1140"
       d="m 246.5625,149.0625 v 20.625"
       style="fill:none;fill-rule:evenodd;stroke:#000000;stroke-width:0.9;stroke-linecap:butt;stroke-linejoin:miter;stroke-miterlimit:4;stroke-dasharray:none;stroke-opacity:1;marker-start:url(#marker1144);marker-end:url(#marker1148)" />
    <g
       transform="translate(-71.241364,-647.76007)"
       id="g1264">
      <polygon
         style="font-style:normal;font-variant:normal;font-weight:normal;font-stretch:normal;letter-spacing:normal;word-spacing:normal;text-anchor:start;fill:#000000;fill-opacity:1;fill-rule:evenodd;stroke:#000000;stroke-width:0;stroke-linecap:butt;stroke-linejoin:miter;stroke-miterlimit:10.43299961;stroke-dasharray:none;stroke-dashoffset:0;stroke-opacity:1"
         points="151.24,707.12 153.19,711.28 153.31,707.12 154.26,707.12 156.89,712.33 155.98,712.33 154.03,708.28 153.92,712.33 152.87,712.33 150.99,708.28 150.8,712.33 149.89,712.33 150.29,707.12 "
         id="polygon1185"
         transform="matrix(1.333333,0,0,-1.333333,-68.207753,1787.4615)" />
      <path
         style="font-style:normal;font-variant:normal;font-weight:normal;font-stretch:normal;letter-spacing:normal;word-spacing:normal;text-anchor:start;fill:#000000;fill-opacity:1;fill-rule:evenodd;stroke:#000000;stroke-width:0;stroke-linecap:butt;stroke-linejoin:miter;stroke-miterlimit:10.43299961;stroke-dasharray:none;stroke-dashoffset:0;stroke-opacity:1"
         inkscape:connector-curvature="0"
         d="m 144.65886,842.9284 -0.0133,-0.04 v -0.0533 -0.0533 l -0.0133,-0.04 v -0.0533 l -0.0133,-0.04 v -0.04 l -0.0133,-0.0533 v -0.04 l -0.0133,-0.04 -0.0133,-0.04 v -0.04 l -0.0267,-0.08 -0.0133,-0.0667 -0.0267,-0.0667 -0.0267,-0.08 -0.0267,-0.0667 -0.0267,-0.0533 -0.04,-0.0667 -0.0267,-0.0667 -0.04,-0.0533 -0.04,-0.0533 c -0.38667,-0.52 -1.05334,-0.82667 -1.82667,-0.82667 -1.49333,0 -2.46667,1.18667 -2.46667,3.02667 0,1.78666 0.96,2.92 2.45334,2.92 1.33333,0 2.17333,-0.78667 2.28,-2.14667 h -0.89334 c -0.14666,0.89333 -0.61333,1.33333 -1.36,1.33333 -0.97333,0 -1.56,-0.8 -1.56,-2.10666 0,-1.38667 0.57334,-2.21334 1.53334,-2.21334 0.74666,0 1.21333,0.42667 1.32,1.2 z"
         id="path1187" />
    </g>
    <g
       transform="translate(101.39364,-660.2759)"
       id="g1268">
      <polygon
         style="font-style:normal;font-variant:normal;font-weight:normal;font-stretch:normal;letter-spacing:normal;word-spacing:normal;text-anchor:start;fill:#000000;fill-opacity:1;fill-rule:evenodd;stroke:#000000;stroke-width:0;stroke-linecap:butt;stroke-linejoin:miter;stroke-miterlimit:10.43299961;stroke-dasharray:none;stroke-dashoffset:0;stroke-opacity:1"
         points="171.34,712.33 170.43,712.33 168.47,708.28 168.36,712.33 167.32,712.33 165.43,708.28 165.24,712.33 164.34,712.33 164.73,707.12 165.69,707.12 167.64,711.28 167.76,707.12 168.7,707.12 "
         id="polygon1189"
         transform="matrix(1.333333,0,0,-1.333333,-68.207753,1787.4615)" />
      <path
         style="font-style:normal;font-variant:normal;font-weight:normal;font-stretch:normal;letter-spacing:normal;word-spacing:normal;text-anchor:start;fill:#000000;fill-opacity:1;fill-rule:evenodd;stroke:#000000;stroke-width:0;stroke-linecap:butt;stroke-linejoin:miter;stroke-miterlimit:10.43299961;stroke-dasharray:none;stroke-dashoffset:0;stroke-opacity:1"
         inkscape:connector-curvature="0"
         d="m 163.56552,842.6084 v -0.0933 l -0.0133,-0.0933 v -0.10667 l -0.0267,-0.08 -0.0133,-0.0933 -0.0267,-0.0933 -0.0267,-0.08 -0.0267,-0.08 -0.04,-0.08 -0.04,-0.0667 -0.04,-0.08 -0.0533,-0.0667 -0.04,-0.0667 -0.0667,-0.0533 -0.0533,-0.0667 -0.0667,-0.0533 -0.0667,-0.0533 -0.0667,-0.0533 -0.0667,-0.04 -0.08,-0.0533 -0.08,-0.0267 -0.08,-0.04 -0.0933,-0.04 -0.0933,-0.0267 -0.0933,-0.0267 -0.0933,-0.0267 -0.10667,-0.0133 -0.10667,-0.0133 -0.10666,-0.0133 -0.10667,-0.0133 h -0.12 -0.12 c -1.29333,0 -2.13333,0.66667 -2.13333,1.69333 0,0.86667 0.45333,1.28 1.76,1.6 l 0.82666,0.2 c 0.61334,0.14667 0.86667,0.37334 0.86667,0.77334 0,0.52 -0.52,0.86666 -1.29333,0.86666 -0.48,0 -0.88,-0.13333 -1.10667,-0.37333 -0.13333,-0.16 -0.2,-0.32 -0.25333,-0.70667 h -0.93334 c 0.04,1.28 0.76,1.89334 2.21334,1.89334 1.4,0 2.29333,-0.69334 2.29333,-1.76 0,-0.82667 -0.46667,-1.28 -1.57333,-1.54667 l -0.84,-0.2 c -0.72,-0.17333 -1.02667,-0.4 -1.02667,-0.78667 0,-0.52 0.45333,-0.84 1.17333,-0.84 0.70667,0 1.09334,0.30667 1.10667,0.88 z"
         id="path1191" />
    </g>
    <path
       d="m 184.62847,231.1969 a 1.2865313,0.7147395 0 0 1 0.22521,-0.0232 l 0.12091,0.71157 z"
       sodipodi:end="4.6182634"
       sodipodi:start="4.4399954"
       sodipodi:ry="0.7147395"
       sodipodi:rx="1.2865313"
       sodipodi:cy="231.88528"
       sodipodi:cx="184.97459"
       sodipodi:type="arc"
       id="path2170"
       style="opacity:1;fill:#ff00ff;fill-opacity:0;stroke:#000000;stroke-width:0.9;stroke-linejoin:round;stroke-miterlimit:4;stroke-dasharray:none;stroke-dashoffset:0;stroke-opacity:1" />
    <path
       inkscape:connector-curvature="0"
       id="path820"
       d="M 46.875,206.25 V 192.01129"
       style="fill:none;fill-rule:evenodd;stroke:#000000;stroke-width:0.9;stroke-linecap:butt;stroke-linejoin:miter;stroke-miterlimit:4;stroke-dasharray:none;stroke-opacity:1;marker-end:url(#marker1236)" />
    <path
       inkscape:connector-curvature="0"
       id="path820-3"
       d="M 46.875,126.5625 V 112.5"
       style="fill:none;fill-rule:evenodd;stroke:#000000;stroke-width:0.9;stroke-linecap:butt;stroke-linejoin:miter;stroke-miterlimit:4;stroke-dasharray:none;stroke-opacity:1;marker-start:url(#SquareM)" />
    <path
       style="fill:none;fill-rule:evenodd;stroke:#000000;stroke-width:0.9;stroke-linecap:butt;stroke-linejoin:miter;stroke-miterlimit:4;stroke-dasharray:none;stroke-opacity:1;marker-end:url(#marker1244)"
       d="M 239.0625,206.65033 V 173.4375"
       id="path847"
       inkscape:connector-curvature="0" />
    <path
       style="fill:none;fill-rule:evenodd;stroke:#000000;stroke-width:0.9;stroke-linecap:butt;stroke-linejoin:miter;stroke-miterlimit:4;stroke-dasharray:none;stroke-opacity:1;marker-start:url(#marker1240)"
       d="M 239.0625,145.3125 V 112.5"
       id="path849"
       inkscape:connector-curvature="0" />
    <path
       inkscape:connector-curvature="0"
       id="path11777"
       d="m 9.375,159.375 h 487.5"
       style="fill:none;fill-rule:evenodd;stroke:#000000;stroke-width:0.9;stroke-linecap:butt;stroke-linejoin:miter;stroke-opacity:1;stroke-miterlimit:4;stroke-dasharray:none" />
    <path
       inkscape:connector-curvature="0"
       id="path13745"
       d="M 236.82311,116.25 H 48.701255"
       style="fill:none;fill-rule:evenodd;stroke:#000000;stroke-width:0.90658784;stroke-linecap:butt;stroke-linejoin:miter;stroke-miterlimit:4;stroke-dasharray:none;stroke-opacity:1;marker-start:url(#marker13749);marker-end:url(#marker13813)" />
    <path
       style="fill:none;fill-rule:evenodd;stroke:#000000;stroke-width:0.9;stroke-linecap:butt;stroke-linejoin:miter;stroke-miterlimit:4;stroke-dasharray:none;stroke-opacity:1;marker-start:url(#marker15409);marker-end:url(#marker15485)"
       d="M 495.02359,116.25 H 240.99269"
       id="path15405"
       inkscape:connector-curvature="0" />
  </g>
</svg>
