<?xml version="1.0" encoding="UTF-8" standalone="no"?>
<!-- Created with Inkscape (http://www.inkscape.org/) -->

<svg
   xmlns:ns0="http://www.iki.fi/pav/software/textext/"
   xmlns:dc="http://purl.org/dc/elements/1.1/"
   xmlns:cc="http://creativecommons.org/ns#"
   xmlns:rdf="http://www.w3.org/1999/02/22-rdf-syntax-ns#"
   xmlns:svg="http://www.w3.org/2000/svg"
   xmlns="http://www.w3.org/2000/svg"
   xmlns:sodipodi="http://sodipodi.sourceforge.net/DTD/sodipodi-0.dtd"
   xmlns:inkscape="http://www.inkscape.org/namespaces/inkscape"
   width="2.95in"
   height="2.5in"
   viewBox="0 0 265.50001 225"
   id="svg2"
   version="1.1"
   inkscape:version="0.92.3 (2405546, 2018-03-11)"
   sodipodi:docname="xrr_footprint.svg"
   inkscape:export-filename="/home/dominique/PhD/Thesis/images/appendix_methods_XRR_footprint.png"
   inkscape:export-xdpi="600"
   inkscape:export-ydpi="600">
  <sodipodi:namedview
     id="base"
     pagecolor="#ffffff"
     bordercolor="#666666"
     borderopacity="1.0"
     inkscape:pageopacity="0.0"
     inkscape:pageshadow="2"
     inkscape:zoom="2.8"
     inkscape:cx="107.34726"
     inkscape:cy="54.369648"
     inkscape:document-units="in"
     inkscape:current-layer="layer3"
     showgrid="true"
     units="in"
     inkscape:window-width="1920"
     inkscape:window-height="1043"
     inkscape:window-x="1920"
     inkscape:window-y="0"
     inkscape:window-maximized="1"
     inkscape:snap-global="false">
    <inkscape:grid
       type="xygrid"
       id="grid1577" />
  </sodipodi:namedview>
  <defs
     id="defs4"><marker
   inkscape:stockid="Arrow1Sstart"
   orient="auto"
   refY="0.0"
   refX="0.0"
   id="Arrow1Sstart"
   style="overflow:visible"
   inkscape:isstock="true">
  <path
     id="path2530"
     d="M 0.0,0.0 L 5.0,-5.0 L -12.5,0.0 L 5.0,5.0 L 0.0,0.0 z "
     style="fill-rule:evenodd;stroke:#000000;stroke-width:1pt;stroke-opacity:1;fill:#000000;fill-opacity:1"
     transform="scale(0.2) translate(6,0)" />
</marker>
<marker
   inkscape:stockid="Arrow1Send"
   orient="auto"
   refY="0.0"
   refX="0.0"
   id="Arrow1Send"
   style="overflow:visible;"
   inkscape:isstock="true">
  <path
     id="path2533"
     d="M 0.0,0.0 L 5.0,-5.0 L -12.5,0.0 L 5.0,5.0 L 0.0,0.0 z "
     style="fill-rule:evenodd;stroke:#000000;stroke-width:1pt;stroke-opacity:1;fill:#000000;fill-opacity:1"
     transform="scale(0.2) rotate(180) translate(6,0)" />
</marker>
<marker
   inkscape:stockid="Arrow2Mend"
   orient="auto"
   refY="0.0"
   refX="0.0"
   id="marker4133"
   style="overflow:visible;"
   inkscape:isstock="true">
  <path
     id="path4131"
     style="fill-rule:evenodd;stroke-width:0.625;stroke-linejoin:round;stroke:#000000;stroke-opacity:1;fill:#000000;fill-opacity:1"
     d="M 8.7185878,4.0337352 L -2.2072895,0.016013256 L 8.7185884,-4.0017078 C 6.9730900,-1.6296469 6.9831476,1.6157441 8.7185878,4.0337352 z "
     transform="scale(0.6) rotate(180) translate(0,0)" />
</marker>
<marker
   inkscape:stockid="Arrow2Mstart"
   orient="auto"
   refY="0.0"
   refX="0.0"
   id="marker4129"
   style="overflow:visible"
   inkscape:isstock="true">
  <path
     id="path4127"
     style="fill-rule:evenodd;stroke-width:0.625;stroke-linejoin:round;stroke:#000000;stroke-opacity:1;fill:#000000;fill-opacity:1"
     d="M 8.7185878,4.0337352 L -2.2072895,0.016013256 L 8.7185884,-4.0017078 C 6.9730900,-1.6296469 6.9831476,1.6157441 8.7185878,4.0337352 z "
     transform="scale(0.6) translate(0,0)" />
</marker>
<marker
   inkscape:isstock="true"
   style="overflow:visible;"
   id="marker2792"
   refX="0.0"
   refY="0.0"
   orient="auto"
   inkscape:stockid="Arrow2Mend"
   inkscape:collect="always">
  <path
     transform="scale(0.6) rotate(180) translate(0,0)"
     d="M 8.7185878,4.0337352 L -2.2072895,0.016013256 L 8.7185884,-4.0017078 C 6.9730900,-1.6296469 6.9831476,1.6157441 8.7185878,4.0337352 z "
     style="fill-rule:evenodd;stroke-width:0.625;stroke-linejoin:round;stroke:#000000;stroke-opacity:1;fill:#000000;fill-opacity:1"
     id="path2790" />
</marker>
<marker
   inkscape:isstock="true"
   style="overflow:visible"
   id="marker2788"
   refX="0.0"
   refY="0.0"
   orient="auto"
   inkscape:stockid="Arrow2Mstart"
   inkscape:collect="always">
  <path
     transform="scale(0.6) translate(0,0)"
     d="M 8.7185878,4.0337352 L -2.2072895,0.016013256 L 8.7185884,-4.0017078 C 6.9730900,-1.6296469 6.9831476,1.6157441 8.7185878,4.0337352 z "
     style="fill-rule:evenodd;stroke-width:0.625;stroke-linejoin:round;stroke:#000000;stroke-opacity:1;fill:#000000;fill-opacity:1"
     id="path2786" />
</marker>
<marker
   inkscape:stockid="Arrow2Mstart"
   orient="auto"
   refY="0.0"
   refX="0.0"
   id="Arrow2Mstart"
   style="overflow:visible"
   inkscape:isstock="true"
   inkscape:collect="always">
  <path
     id="path2542"
     style="fill-rule:evenodd;stroke-width:0.625;stroke-linejoin:round;stroke:#000000;stroke-opacity:1;fill:#000000;fill-opacity:1"
     d="M 8.7185878,4.0337352 L -2.2072895,0.016013256 L 8.7185884,-4.0017078 C 6.9730900,-1.6296469 6.9831476,1.6157441 8.7185878,4.0337352 z "
     transform="scale(0.6) translate(0,0)" />
</marker>
<marker
   inkscape:stockid="Arrow2Mend"
   orient="auto"
   refY="0.0"
   refX="0.0"
   id="Arrow2Mend"
   style="overflow:visible;"
   inkscape:isstock="true"
   inkscape:collect="always">
  <path
     id="path2545"
     style="fill-rule:evenodd;stroke-width:0.625;stroke-linejoin:round;stroke:#000000;stroke-opacity:1;fill:#000000;fill-opacity:1"
     d="M 8.7185878,4.0337352 L -2.2072895,0.016013256 L 8.7185884,-4.0017078 C 6.9730900,-1.6296469 6.9831476,1.6157441 8.7185878,4.0337352 z "
     transform="scale(0.6) rotate(180) translate(0,0)" />
</marker>










</defs>
  <metadata
     id="metadata7">
    <rdf:RDF>
      <cc:Work
         rdf:about="">
        <dc:format>image/svg+xml</dc:format>
        <dc:type
           rdf:resource="http://purl.org/dc/dcmitype/StillImage" />
        <dc:title />
      </cc:Work>
    </rdf:RDF>
  </metadata>
  <g
     inkscape:label="Layer 1"
     inkscape:groupmode="layer"
     id="layer1"
     transform="translate(0,-827.36216)"
     style="opacity:1">
    <rect
       style="opacity:1;fill:#808080;fill-opacity:1;stroke:#000000;stroke-width:0.9;stroke-linejoin:round;stroke-miterlimit:4;stroke-dasharray:none;stroke-dashoffset:0;stroke-opacity:1"
       id="rect3151-4"
       width="146.19516"
       height="19.928495"
       x="56.25"
       y="849.62122" />
    <rect
       y="940.32751"
       x="-10.483345"
       height="19.928495"
       width="146.19516"
       id="rect2508"
       style="opacity:1;fill:#808080;fill-opacity:1;stroke:#000000;stroke-width:0.9;stroke-linejoin:round;stroke-miterlimit:4;stroke-dasharray:none;stroke-dashoffset:0;stroke-opacity:1"
       transform="rotate(-4.0362435)" />
    <rect
       transform="rotate(-13.791624)"
       style="opacity:1;fill:#808080;fill-opacity:1;stroke:#000000;stroke-width:0.9;stroke-linejoin:round;stroke-miterlimit:4;stroke-dasharray:none;stroke-dashoffset:0;stroke-opacity:1"
       id="rect2512"
       width="146.19516"
       height="19.928495"
       x="-190.77484"
       y="1012.019" />
    <path
       style="fill:none;fill-rule:evenodd;stroke:#000000;stroke-width:0.9;stroke-linecap:butt;stroke-linejoin:miter;stroke-miterlimit:4;stroke-dasharray:none;stroke-opacity:1;marker-start:url(#Arrow2Mstart);marker-end:url(#Arrow2Mend)"
       d="M 58.983612,964.24497 202.39336,952.8514"
       id="path2516"
       inkscape:connector-curvature="0" />
    <path
       style="fill:none;fill-rule:evenodd;stroke:#000000;stroke-width:0.9;stroke-linecap:butt;stroke-linejoin:miter;stroke-opacity:1;stroke-miterlimit:4;stroke-dasharray:1.8,0.9;stroke-dashoffset:0"
       d="m 125.9534,933.98491 h 38.82773"
       id="path4139"
       inkscape:connector-curvature="0" />
    <path
       style="opacity:1;fill:none;fill-opacity:1;fill-rule:nonzero;stroke:#000000;stroke-width:0.89999998;stroke-linejoin:round;stroke-miterlimit:4;stroke-dasharray:none;stroke-dashoffset:0;stroke-opacity:1"
       id="path4141"
       sodipodi:type="arc"
       sodipodi:cx="-126.57751"
       sodipodi:cy="105.11662"
       sodipodi:rx="27.450001"
       sodipodi:ry="27.450001"
       sodipodi:start="3.0738913"
       sodipodi:end="3.154392"
       d="m -153.96462,106.97361 a 27.450001,27.450001 0 0 1 -0.0606,-2.20832"
       sodipodi:open="true"
       transform="matrix(-1,0,0,1,0,827.36216)" />
  </g>
  <g
     inkscape:groupmode="layer"
     id="layer2"
     inkscape:label="Layer 2"
     style="opacity:0.5">
    <rect
       style="opacity:1;fill:#0ea8df;fill-opacity:1;fill-rule:nonzero;stroke:none;stroke-width:0.9009304;stroke-linejoin:round;stroke-miterlimit:4;stroke-dasharray:none;stroke-dashoffset:0;stroke-opacity:1"
       id="rect1575"
       width="271.875"
       height="18"
       x="-2.5810716"
       y="13.102425" />
    <rect
       y="97.044472"
       x="-2.5810716"
       height="18"
       width="271.875"
       id="rect2510"
       style="opacity:1;fill:#0ea8df;fill-opacity:1;fill-rule:nonzero;stroke:none;stroke-width:0.9009304;stroke-linejoin:round;stroke-miterlimit:4;stroke-dasharray:none;stroke-dashoffset:0;stroke-opacity:1" />
    <rect
       style="opacity:1;fill:#0ea8df;fill-opacity:1;fill-rule:nonzero;stroke:none;stroke-width:0.9009304;stroke-linejoin:round;stroke-miterlimit:4;stroke-dasharray:none;stroke-dashoffset:0;stroke-opacity:1"
       id="rect2514"
       width="271.875"
       height="18"
       x="-2.5810716"
       y="174.08888" />
  </g>
  <g
     inkscape:groupmode="layer"
     id="layer3"
     inkscape:label="Layer 3">
    <path
       inkscape:connector-curvature="0"
       id="path2784"
       d="m 239.12996,113.62989 0.10257,-15.198143"
       style="opacity:1;fill:none;fill-rule:evenodd;stroke:#000000;stroke-width:0.9;stroke-linecap:butt;stroke-linejoin:miter;stroke-miterlimit:4;stroke-dasharray:none;stroke-opacity:1;marker-start:url(#marker2788);marker-end:url(#marker2792)" />
    <g
       ns0:inkscapeversion="0.92.3"
       ns0:scale="1.0"
       ns0:preamble="/home/dominique/.config/inkscape/extensions/default_packages.tex"
       ns0:text="$b$"
       ns0:pdfconverter="pstoedit"
       ns0:texconverter="pdflatex"
       ns0:version="0.7.2"
       word-spacing="normal"
       letter-spacing="normal"
       font-size-adjust="none"
       font-stretch="normal"
       font-weight="normal"
       font-variant="normal"
       font-style="normal"
       stroke-miterlimit="10.433"
       xml:space="preserve"
       transform="matrix(1.333333,0,0,-1.333333,36.116013,1070.5911)"
       id="g2873"
       style="font-style:normal;font-variant:normal;font-weight:normal;font-stretch:normal;letter-spacing:normal;word-spacing:normal;text-anchor:start;fill:#000000;fill-opacity:1;fill-rule:evenodd;stroke:#000000;stroke-linecap:butt;stroke-linejoin:miter;stroke-miterlimit:10.43299961;stroke-dasharray:none;stroke-dashoffset:0;stroke-opacity:1">
<path
   id="path2871"
   d="m 150.8,714.37 -1.55,-7.25 H 150 l 0.17,0.78 c 0.13,-0.31 0.22,-0.45 0.37,-0.6 0.26,-0.25 0.67,-0.4 1.1,-0.4 l 0.02,0.76 c -0.67,0 -1.1,0.5 -1.1,1.28 0,0.62 0.18,1.29 0.46,1.77 0.38,0.66 0.91,1 1.51,1 v 0 c 0.73,0 1.17,-0.51 1.17,-1.37 0,-0.56 -0.17,-1.2 -0.46,-1.68 -0.41,-0.67 -0.93,-1 -1.58,-1 l -0.02,-0.76 c 0.67,0 1.38,0.3 1.83,0.77 0.67,0.71 1.11,1.84 1.11,2.86 0,1.12 -0.76,1.95 -1.77,1.95 -0.4,0 -0.85,-0.12 -1.15,-0.3 -0.17,-0.11 -0.29,-0.22 -0.61,-0.54 l 0.58,2.73 z"
   inkscape:connector-curvature="0"
   style="fill:#000000;stroke-width:0" />
</g>    <g
       style="font-style:normal;font-variant:normal;font-weight:normal;font-stretch:normal;letter-spacing:normal;word-spacing:normal;text-anchor:start;fill:#000000;fill-opacity:1;fill-rule:evenodd;stroke:#000000;stroke-linecap:butt;stroke-linejoin:miter;stroke-miterlimit:10.43299961;stroke-dasharray:none;stroke-dashoffset:0;stroke-opacity:1"
       id="content"
       transform="matrix(1.333333,0,0,-1.333333,-72.614129,1085.7434)"
       xml:space="preserve"
       stroke-miterlimit="10.433"
       font-style="normal"
       font-variant="normal"
       font-weight="normal"
       font-stretch="normal"
       font-size-adjust="none"
       letter-spacing="normal"
       word-spacing="normal"
       ns0:version="0.7.2"
       ns0:texconverter="pdflatex"
       ns0:pdfconverter="pstoedit"
       ns0:text="$d$"
       ns0:preamble="/home/dominique/.config/inkscape/extensions/default_packages.tex"
       ns0:scale="1.0"
       ns0:inkscapeversion="0.92.3">
<path
   style="fill:#000000;stroke-width:0"
   inkscape:connector-curvature="0"
   d="m 155.19,714.37 h -0.83 l -0.6,-2.79 c -0.32,0.64 -0.72,0.9 -1.43,0.9 l -0.08,-0.77 c 0.74,0 1.18,-0.49 1.18,-1.34 0,-0.58 -0.16,-1.19 -0.46,-1.71 -0.39,-0.66 -0.88,-1 -1.49,-1 -0.73,0 -1.16,0.5 -1.16,1.35 0,0.56 0.17,1.19 0.44,1.7 0.37,0.69 0.85,1 1.49,1 v 0 l 0.08,0.77 c -1.65,0 -2.89,-1.57 -2.89,-3.67 0,-1.16 0.67,-1.91 1.71,-1.91 0.42,0 0.88,0.14 1.28,0.37 0.3,0.18 0.43,0.33 0.57,0.61 l -0.16,-0.76 h 0.81 z"
   id="path3007" />
</g>    <path
       inkscape:connector-curvature="0"
       id="path3038"
       d="M 201.3597,100.70389 H 55.400554"
       style="fill:none;fill-rule:evenodd;stroke:#000000;stroke-width:0.9375;stroke-linecap:butt;stroke-linejoin:miter;stroke-opacity:1;stroke-miterlimit:4;stroke-dasharray:1.87499999,0.9375;stroke-dashoffset:0" />
    <path
       inkscape:connector-curvature="0"
       id="path3040"
       d="M 55.755685,111.47621 V 100.70389"
       style="fill:none;fill-rule:evenodd;stroke:#ee292f;stroke-width:0.9375;stroke-linecap:butt;stroke-linejoin:miter;stroke-opacity:1;stroke-miterlimit:4;stroke-dasharray:1.87499999, 0.93750000000000000;stroke-dashoffset:0" />
    <path
       sodipodi:open="true"
       d="m 147.06055,104.9515 a 54.483131,54.483131 0 0 1 -0.12032,-4.38265"
       sodipodi:end="3.154392"
       sodipodi:start="3.0738996"
       sodipodi:ry="54.483131"
       sodipodi:rx="54.483131"
       sodipodi:cy="101.26618"
       sodipodi:cx="201.4189"
       sodipodi:type="arc"
       id="path3042"
       style="opacity:1;fill:none;fill-opacity:1;fill-rule:nonzero;stroke:#000000;stroke-width:0.89999998;stroke-linejoin:round;stroke-miterlimit:4;stroke-dasharray:none;stroke-dashoffset:0;stroke-opacity:1" />
    <path
       style="fill:none;fill-rule:evenodd;stroke:#000000;stroke-width:0.9375px;stroke-linecap:butt;stroke-linejoin:miter;stroke-opacity:1"
       d="m 148.53386,102.95305 3.78807,-8.049645"
       id="path3901"
       inkscape:connector-curvature="0" />
    <path
       style="font-style:normal;font-variant:normal;font-weight:normal;font-stretch:normal;letter-spacing:normal;word-spacing:normal;text-anchor:start;fill:#000000;fill-opacity:1;fill-rule:evenodd;stroke:#000000;stroke-width:0;stroke-linecap:butt;stroke-linejoin:miter;stroke-miterlimit:10.43299961;stroke-dasharray:none;stroke-dashoffset:0;stroke-opacity:1"
       inkscape:connector-curvature="0"
       d="m 159.68661,87.175175 v -0.0933 -0.08 l -0.0133,-0.0933 v -0.10667 l -0.0133,-0.0933 v -0.10667 l -0.0133,-0.10667 -0.0133,-0.12 -0.0267,-0.10666 -0.0133,-0.10667 -0.0267,-0.12 -0.0267,-0.10667 -0.0267,-0.12 -0.04,-0.10666 -0.04,-0.10667 -0.04,-0.12 -0.04,-0.0933 -0.0533,-0.10667 -0.0533,-0.10667 -0.0533,-0.0933 -0.0667,-0.08 -0.0667,-0.0933 -0.0667,-0.08 -0.08,-0.0667 -0.08,-0.0667 -0.0533,-0.0267 -0.04,-0.04 -0.04,-0.0267 -0.0533,-0.0133 -0.0533,-0.0267 -0.04,-0.0267 -0.0533,-0.0133 -0.0533,-0.0133 -0.0533,-0.0133 -0.0667,-0.0133 -0.0533,-0.0133 h -0.0533 l -0.0667,-0.0133 h -0.0667 l -0.0133,0.29334 c 0.65333,0 0.73333,0.85333 0.73333,1.6 0,0.65333 -0.10666,1.33333 -0.42666,2.64 h -2.77333 c 0.22666,-0.85334 0.49333,-1.90667 1.02666,-2.85334 0.36,-0.64 0.84,-1.38666 1.44,-1.38666 l 0.0133,-0.29334 c -1.83999,0 -3.89333,3.73334 -3.89333,6.77334 0,1.24 0.38667,2.70666 1.6,2.70666 v -0.28 c -0.44,0 -0.72,-0.38666 -0.72,-1.62666 0,-0.54667 0.08,-1.32 0.42667,-2.61334 h 2.76 c -0.14667,0.6 -0.42667,1.73334 -0.93334,2.68 -0.46666,0.90667 -0.95999,1.56 -1.53333,1.56 v 0.28 c 1.86667,0 3.89333,-3.8 3.89333,-6.76 z"
       id="path4040" />
    <g
       id="g4123"
       transform="translate(-3.0070213,-51.798657)">
      <path
         id="path4042"
         d="m 23.919232,143.9008 h -1.119999 l -0.8,3.72 c -0.426667,-0.85333 -0.96,-1.2 -1.906666,-1.2 l -0.09333,1.02667 c 0.973333,0 1.56,0.65333 1.56,1.78667 0,0.77333 -0.213333,1.58666 -0.613333,2.28 -0.52,0.88 -1.16,1.33333 -1.973333,1.33333 -0.986666,0 -1.56,-0.66667 -1.56,-1.8 0,-0.74667 0.226667,-1.58667 0.586667,-2.26667 0.506666,-0.92 1.146666,-1.33333 1.999999,-1.33333 v 0 l 0.09333,-1.02667 c -2.2,0 -3.853333,2.09334 -3.853333,4.89334 0,1.54666 0.893333,2.54666 2.28,2.54666 0.573333,0 1.186666,-0.18666 1.706666,-0.49333 0.4,-0.24 0.573333,-0.44 0.76,-0.81333 l -0.213334,1.01333 h 1.08 z"
         inkscape:connector-curvature="0"
         style="font-style:normal;font-variant:normal;font-weight:normal;font-stretch:normal;letter-spacing:normal;word-spacing:normal;text-anchor:start;fill:#000000;fill-opacity:1;fill-rule:evenodd;stroke:#000000;stroke-width:0;stroke-linecap:butt;stroke-linejoin:miter;stroke-miterlimit:10.43299961;stroke-dasharray:none;stroke-dashoffset:0;stroke-opacity:1" />
      <path
         id="path4044"
         d="m 29.759231,148.55414 v -0.12 l -0.01333,-0.13334 -0.01333,-0.12 -0.02667,-0.10666 -0.01333,-0.12 -0.04,-0.10667 -0.02667,-0.10667 -0.04,-0.0933 -0.04,-0.0933 -0.05333,-0.0933 -0.05333,-0.0933 -0.06667,-0.0933 -0.05333,-0.08 -0.08,-0.08 -0.06667,-0.0667 -0.08,-0.0667 -0.08,-0.0667 -0.09333,-0.0667 -0.09333,-0.0533 -0.09333,-0.0533 -0.09333,-0.0533 -0.106666,-0.04 -0.12,-0.0533 -0.106667,-0.0267 -0.12,-0.04 -0.12,-0.0267 -0.133333,-0.0267 -0.133334,-0.0133 -0.133333,-0.0133 -0.146667,-0.0133 -0.133333,-0.0133 h -0.16 c -1.613333,0 -2.666666,0.84 -2.666666,2.12 0,1.08 0.56,1.6 2.2,2 l 1.039999,0.25334 c 0.773334,0.18666 1.08,0.46666 1.08,0.96 0,0.65333 -0.653333,1.09333 -1.626666,1.09333 -0.586667,0 -1.093333,-0.17333 -1.373333,-0.46667 -0.173333,-0.2 -0.253333,-0.4 -0.32,-0.88 h -1.173333 c 0.05333,1.6 0.96,2.36 2.773333,2.36 1.759999,0 2.879999,-0.85333 2.879999,-2.2 0,-1.02666 -0.586667,-1.6 -1.973333,-1.93333 l -1.053333,-0.24 c -0.906667,-0.21333 -1.293333,-0.50667 -1.293333,-1 0,-0.64 0.573333,-1.04 1.466666,-1.04 0.893333,0 1.373333,0.37333 1.4,1.10667 z"
         inkscape:connector-curvature="0"
         style="font-style:normal;font-variant:normal;font-weight:normal;font-stretch:normal;letter-spacing:normal;word-spacing:normal;text-anchor:start;fill:#000000;fill-opacity:1;fill-rule:evenodd;stroke:#000000;stroke-width:0;stroke-linecap:butt;stroke-linejoin:miter;stroke-miterlimit:10.43299961;stroke-dasharray:none;stroke-dashoffset:0;stroke-opacity:1" />
      <polygon
         transform="matrix(1.333333,0,0,-1.333333,-193.30738,1096.3939)"
         id="polygon4046"
         points="168.58,707.12 169.41,707.12 169.41,712.33 168.58,712.33 "
         style="font-style:normal;font-variant:normal;font-weight:normal;font-stretch:normal;letter-spacing:normal;word-spacing:normal;text-anchor:start;fill:#000000;fill-opacity:1;fill-rule:evenodd;stroke:#000000;stroke-width:0;stroke-linecap:butt;stroke-linejoin:miter;stroke-miterlimit:10.43299961;stroke-dasharray:none;stroke-dashoffset:0;stroke-opacity:1" />
      <polygon
         transform="matrix(1.333333,0,0,-1.333333,-193.30738,1096.3939)"
         id="polygon4048"
         points="168.57,713.32 169.41,713.32 169.41,714.37 168.57,714.37 "
         style="font-style:normal;font-variant:normal;font-weight:normal;font-stretch:normal;letter-spacing:normal;word-spacing:normal;text-anchor:start;fill:#000000;fill-opacity:1;fill-rule:evenodd;stroke:#000000;stroke-width:0;stroke-linecap:butt;stroke-linejoin:miter;stroke-miterlimit:10.43299961;stroke-dasharray:none;stroke-dashoffset:0;stroke-opacity:1" />
      <path
         id="path4050"
         d="m 34.452563,146.6208 v 6.94667 h 1.12 v -3.84 c 0,-1.41333 0.746666,-2.33333 1.893333,-2.33333 0.866666,0 1.426666,0.52 1.426666,1.36 v 4.81333 h 1.106666 v -5.25333 c 0,-1.14667 -0.866666,-1.89334 -2.213332,-1.89334 -1.026667,0 -1.693333,0.4 -2.306667,1.36 v -1.16 z"
         inkscape:connector-curvature="0"
         style="font-style:normal;font-variant:normal;font-weight:normal;font-stretch:normal;letter-spacing:normal;word-spacing:normal;text-anchor:start;fill:#000000;fill-opacity:1;fill-rule:evenodd;stroke:#000000;stroke-width:0;stroke-linecap:butt;stroke-linejoin:miter;stroke-miterlimit:10.43299961;stroke-dasharray:none;stroke-dashoffset:0;stroke-opacity:1" />
      <path
         id="path4052"
         d="m 44.052561,143.9008 -0.253334,0.33334 -0.226666,0.34666 -0.213333,0.36 -0.213334,0.37334 -0.186666,0.38666 -0.186667,0.38667 -0.16,0.4 -0.146667,0.4 -0.133333,0.41333 -0.12,0.4 -0.09333,0.41334 -0.09333,0.41333 -0.05333,0.4 -0.05333,0.41333 -0.01333,0.2 -0.01333,0.2 -0.01333,0.2 v 0.18667 c 0,2.09333 0.84,4.50667 2.173333,6.24 h 0.733333 c -1.173333,-1.89333 -1.826666,-4.12 -1.826666,-6.24 0,-2.10667 0.653333,-4.34667 1.826666,-6.22667 z"
         inkscape:connector-curvature="0"
         style="font-style:normal;font-variant:normal;font-weight:normal;font-stretch:normal;letter-spacing:normal;word-spacing:normal;text-anchor:start;fill:#000000;fill-opacity:1;fill-rule:evenodd;stroke:#000000;stroke-width:0;stroke-linecap:butt;stroke-linejoin:miter;stroke-miterlimit:10.43299961;stroke-dasharray:none;stroke-dashoffset:0;stroke-opacity:1" />
      <path
         id="path4054"
         d="m 51.385892,146.9408 v -0.0933 -0.08 l -0.01333,-0.0933 v -0.10667 l -0.01333,-0.0933 -0.01333,-0.10667 v -0.10667 l -0.02667,-0.12 -0.01333,-0.10666 -0.01333,-0.10667 -0.02667,-0.12 -0.02667,-0.10667 -0.02667,-0.12 -0.04,-0.10666 -0.04,-0.10667 -0.04,-0.12 -0.04,-0.0933 -0.05333,-0.10667 -0.05333,-0.10667 -0.05333,-0.0933 -0.06667,-0.08 -0.06667,-0.0933 -0.06667,-0.08 -0.08,-0.0667 -0.08,-0.0667 -0.05333,-0.0267 -0.04,-0.04 -0.04,-0.0267 -0.05333,-0.0133 -0.05333,-0.0267 -0.04,-0.0267 -0.05333,-0.0133 -0.05333,-0.0133 -0.05333,-0.0133 -0.06667,-0.0133 -0.05333,-0.0133 h -0.06667 l -0.05333,-0.0133 h -0.06667 l -0.01333,0.29334 c 0.653333,0 0.733333,0.85333 0.733333,1.6 0,0.65333 -0.106666,1.33333 -0.426666,2.64 h -2.773333 c 0.226667,-0.85334 0.493333,-1.90667 1.026667,-2.85334 0.346666,-0.64 0.839999,-1.38666 1.439999,-1.38666 l 0.01333,-0.29334 c -1.84,0 -3.893333,3.73334 -3.893333,6.77334 0,1.24 0.386667,2.70666 1.6,2.70666 v -0.28 c -0.44,0 -0.72,-0.38666 -0.72,-1.62666 0,-0.54667 0.08,-1.32 0.426667,-2.61334 h 2.759999 c -0.146667,0.6 -0.426667,1.73334 -0.933333,2.68 -0.466667,0.90667 -0.973333,1.56 -1.533333,1.56 v 0.28 c 1.866666,0 3.893332,-3.8 3.893332,-6.76 z"
         inkscape:connector-curvature="0"
         style="font-style:normal;font-variant:normal;font-weight:normal;font-stretch:normal;letter-spacing:normal;word-spacing:normal;text-anchor:start;fill:#000000;fill-opacity:1;fill-rule:evenodd;stroke:#000000;stroke-width:0;stroke-linecap:butt;stroke-linejoin:miter;stroke-miterlimit:10.43299961;stroke-dasharray:none;stroke-dashoffset:0;stroke-opacity:1" />
      <path
         id="path4056"
         d="m 53.172558,156.36747 0.24,-0.33333 0.24,-0.34667 0.213334,-0.36 0.213333,-0.37333 0.186666,-0.37334 0.173334,-0.4 0.173333,-0.38666 0.146667,-0.41334 0.133333,-0.4 0.12,-0.41333 0.09333,-0.41333 0.08,-0.4 0.06667,-0.41334 0.05333,-0.4 0.01333,-0.2 0.01333,-0.2 0.01333,-0.2 v -0.2 c 0,-2.09333 -0.84,-4.50666 -2.173333,-6.24 h -0.733333 c 1.173333,1.89334 1.826666,4.12 1.826666,6.24 0,2.10667 -0.653333,4.34667 -1.826666,6.22667 z"
         inkscape:connector-curvature="0"
         style="font-style:normal;font-variant:normal;font-weight:normal;font-stretch:normal;letter-spacing:normal;word-spacing:normal;text-anchor:start;fill:#000000;fill-opacity:1;fill-rule:evenodd;stroke:#000000;stroke-width:0;stroke-linecap:butt;stroke-linejoin:miter;stroke-miterlimit:10.43299961;stroke-dasharray:none;stroke-dashoffset:0;stroke-opacity:1" />
    </g>
    <path
       style="opacity:1;fill:none;fill-rule:evenodd;stroke:#000000;stroke-width:0.9;stroke-linecap:butt;stroke-linejoin:miter;stroke-miterlimit:4;stroke-dasharray:none;stroke-opacity:1;marker-start:url(#Arrow1Sstart);marker-end:url(#Arrow1Send)"
       d="m 53.622861,109.3194 0.109688,-7.25551"
       id="path4125"
       inkscape:connector-curvature="0" />
    <path
       inkscape:connector-curvature="0"
       id="path4145"
       d="m 152.68978,105.69418 -1.32759,-8.796809"
       style="fill:none;fill-rule:evenodd;stroke:#000000;stroke-width:0.9375px;stroke-linecap:butt;stroke-linejoin:miter;stroke-opacity:1" />
  </g>
</svg>
